<svg width="217" height="262" viewBox="0 0 217 262" fill="none" xmlns="http://www.w3.org/2000/svg">
<path d="M152 0.0962369C152 0.0962369 151.7 0.0962369 151.122 0.0962369C150.278 0.0594263 149.432 0.0594263 148.588 0.0962369C145.325 0.236596 142.118 0.788865 139.109 1.72884C134.34 3.19727 130.19 5.57255 127.086 8.61028C125.171 10.507 123.748 12.6458 122.885 14.9203C120.94 20.3382 121.991 26.1013 125.808 30.9525C126.848 32.2956 128.118 33.5355 129.586 34.6422C131.067 35.8146 132.792 36.8066 134.698 37.5809C136.653 38.3891 138.867 38.7978 141.11 38.7645C143.422 38.7441 145.64 38.0856 147.322 36.9197C148.135 36.2939 148.772 35.5565 149.197 34.7498C149.622 33.943 149.827 33.0826 149.8 32.2178C149.783 30.4209 149.006 28.6723 147.577 27.2138C144.699 24.2343 140.032 22.2344 135.064 21.1569C129.913 20.0942 124.474 20.0379 119.284 20.9936C116.635 21.4998 114.082 22.2456 111.683 23.2139C109.262 24.2178 107.062 25.4868 105.16 26.9771C104.705 27.3608 104.182 27.7118 103.771 28.1363L102.516 29.377C101.752 30.2514 101.069 31.1622 100.471 32.1035C99.2821 34.0146 98.4702 36.0403 98.0594 38.1196C97.2528 42.2736 98.0218 46.5106 100.282 50.3642C102.442 54.1296 106.204 57.2799 111.006 59.3435C113.333 60.3205 115.932 60.8982 118.607 61.0333C121.229 61.1411 123.837 60.6813 126.108 59.7109C128.361 58.796 130.142 57.3617 131.175 55.6294C132.15 53.922 132.217 52.0083 131.364 50.2662C130.486 48.5855 129.049 47.0926 127.186 45.9235C125.378 44.7759 123.293 43.8871 121.04 43.3032C116.646 42.2854 111.944 42.2259 107.505 43.1317C103.351 43.9585 99.5361 45.5196 96.3925 47.6786C93.5291 49.6936 91.3483 52.1734 90.0249 54.9192C87.7101 59.6834 87.8167 64.9016 90.325 69.6126C92.2813 73.1296 95.4296 76.2207 99.4707 78.592C102.016 80.0917 104.851 81.3049 107.883 82.1919C108.927 82.4776 109.739 82.6898 110.294 82.8041L111.117 83C111.117 83 110.828 82.9592 110.272 82.8449C109.451 82.6835 108.642 82.49 107.85 82.2653C104.778 81.4175 101.906 80.2221 99.3373 78.7226C95.2278 76.3529 92.0172 73.2467 90.0138 69.7024C87.4613 64.9468 87.3311 59.6743 89.6471 54.8539C90.973 52.0664 93.1778 49.549 96.0813 47.5071C99.2694 45.3048 103.141 43.7076 107.361 42.8542C111.893 41.9253 116.695 41.982 121.185 43.0175C123.504 43.6116 125.65 44.5229 127.508 45.7031C129.445 46.9105 130.935 48.4576 131.842 50.2009C132.756 52.0209 132.716 54.0255 131.731 55.8253C130.634 57.6258 128.775 59.1177 126.43 60.0782C124.076 61.0861 121.372 61.5683 118.651 61.4659C115.911 61.3255 113.251 60.7281 110.872 59.719C105.961 57.6266 102.105 54.4218 99.8819 50.5846C97.5732 46.6604 96.7811 42.3447 97.5926 38.1115C98.0169 35.9901 98.8475 33.9234 100.06 31.9729C100.67 31.0116 101.368 30.0816 102.149 29.1893L103.438 27.924C103.849 27.4914 104.382 27.1077 104.849 26.7322C106.796 25.2136 109.044 23.9201 111.517 22.8956C113.971 21.9088 116.585 21.1519 119.296 20.6426C124.584 19.669 130.128 19.7281 135.376 20.814C140.443 21.9242 145.188 23.9568 148.177 27.0424C149.68 28.5618 150.496 30.3889 150.511 32.2667C150.565 34.1148 149.618 35.903 147.877 37.238C146.099 38.464 143.759 39.1545 141.321 39.1727C138.987 39.2116 136.683 38.7856 134.653 37.94C132.702 37.1494 130.939 36.1323 129.43 34.9279C127.943 33.7964 126.655 32.5321 125.596 31.1647C121.711 26.2235 120.656 20.3512 122.663 14.8387C123.552 12.5379 125.01 10.3768 126.963 8.46334C130.125 5.40256 134.346 3.02058 139.187 1.56558C142.221 0.643757 145.453 0.124174 148.733 0.0309311C149.584 -0.0103104 150.438 -0.0103104 151.289 0.0309311L152 0.0962369Z" fill="#868686"/>
<path d="M189.587 81.3879H32.2877V202.708H189.587V81.3879Z" fill="#E1E1E1"/>
<path d="M32.2877 81.3879L61.3445 108.493H215.974L189.587 81.3879H32.2877Z" fill="#EBEBEB"/>
<path d="M32.2877 81.3879L189.632 81.1074H189.755L189.845 81.1859L215.962 108.01L216.232 108.291L216.714 108.784H216.018L61.3894 108.661H61.3221L32.2877 81.3879L61.4567 108.313H61.3333L215.962 108.201L215.76 108.695L215.48 108.414L189.374 81.5898L189.576 81.6796L32.2877 81.3879Z" fill="#263238"/>
<path d="M79.5415 137.336C78.6894 137.367 77.8835 137.731 77.2972 138.35C76.7108 138.969 76.391 139.794 76.4064 140.646C76.4219 141.499 76.7714 142.311 77.3797 142.909C77.9881 143.506 78.8067 143.841 79.6594 143.841C80.512 143.841 81.3306 143.506 81.939 142.909C82.5473 142.311 82.8968 141.499 82.9123 140.646C82.9277 139.794 82.6078 138.969 82.0215 138.35C81.4352 137.731 80.6292 137.367 79.7771 137.336" fill="#263238"/>
<path d="M116.71 137.336C115.861 137.369 115.059 137.732 114.476 138.35C113.893 138.967 113.575 139.789 113.591 140.638C113.607 141.487 113.956 142.296 114.562 142.89C115.168 143.485 115.984 143.818 116.833 143.818C117.682 143.818 118.497 143.485 119.104 142.89C119.71 142.296 120.058 141.487 120.075 140.638C120.091 139.789 119.773 138.967 119.19 138.35C118.607 137.732 117.805 137.369 116.956 137.336" fill="#263238"/>
<path opacity="0.5" d="M32.6467 82.7229L60.4694 117.995H189.587V108.493H61.3445L32.6467 82.7229Z" fill="black"/>
<path d="M158.567 202.439C158.41 202.439 158.275 181.336 158.275 155.32C158.275 129.304 158.41 108.201 158.567 108.201C158.724 108.201 158.87 129.292 158.87 155.32C158.87 181.348 158.735 202.439 158.567 202.439Z" fill="#263238"/>
<path d="M183.271 174.931H169.404V190.603H183.271V174.931Z" fill="#F5F5F5"/>
<path d="M32.2878 81.3879L0 108.493H32.2878V81.3879Z" fill="white"/>
<g opacity="0.4">
<path d="M32.2878 81.3879L0 108.493H32.2878V81.3879Z" fill="black"/>
</g>
<path d="M192.661 202.708H192.19H190.832L185.616 202.764L166.398 202.854L103.022 203L39.6249 202.921L20.4182 202.832L15.2015 202.776L20.4182 202.72L39.6249 202.63L103.022 202.54L166.398 202.63L185.616 202.72L190.832 202.776H192.19L192.661 202.708Z" fill="#263238"/>
<path d="M35.8119 255H33.2919L27.5859 246.378V255H25.0659V242.418H27.5859L33.2919 251.058V242.418H35.8119V255ZM42.7302 255.162C41.7702 255.162 40.9062 254.952 40.1382 254.532C39.3702 254.1 38.7642 253.494 38.3202 252.714C37.8882 251.934 37.6722 251.034 37.6722 250.014C37.6722 248.994 37.8942 248.094 38.3382 247.314C38.7942 246.534 39.4122 245.934 40.1922 245.514C40.9722 245.082 41.8422 244.866 42.8022 244.866C43.7622 244.866 44.6322 245.082 45.4122 245.514C46.1922 245.934 46.8042 246.534 47.2482 247.314C47.7042 248.094 47.9322 248.994 47.9322 250.014C47.9322 251.034 47.6982 251.934 47.2302 252.714C46.7742 253.494 46.1502 254.1 45.3582 254.532C44.5782 254.952 43.7022 255.162 42.7302 255.162ZM42.7302 252.966C43.1862 252.966 43.6122 252.858 44.0082 252.642C44.4162 252.414 44.7402 252.078 44.9802 251.634C45.2202 251.19 45.3402 250.65 45.3402 250.014C45.3402 249.066 45.0882 248.34 44.5842 247.836C44.0922 247.32 43.4862 247.062 42.7662 247.062C42.0462 247.062 41.4402 247.32 40.9482 247.836C40.4682 248.34 40.2282 249.066 40.2282 250.014C40.2282 250.962 40.4622 251.694 40.9302 252.21C41.4102 252.714 42.0102 252.966 42.7302 252.966ZM53.4218 250.014C53.4218 248.982 53.6318 248.082 54.0518 247.314C54.4718 246.534 55.0538 245.934 55.7978 245.514C56.5418 245.082 57.3938 244.866 58.3538 244.866C59.5898 244.866 60.6098 245.178 61.4138 245.802C62.2298 246.414 62.7758 247.278 63.0518 248.394H60.3338C60.1898 247.962 59.9438 247.626 59.5958 247.386C59.2598 247.134 58.8398 247.008 58.3358 247.008C57.6158 247.008 57.0458 247.272 56.6258 247.8C56.2058 248.316 55.9958 249.054 55.9958 250.014C55.9958 250.962 56.2058 251.7 56.6258 252.228C57.0458 252.744 57.6158 253.002 58.3358 253.002C59.3558 253.002 60.0218 252.546 60.3338 251.634H63.0518C62.7758 252.714 62.2298 253.572 61.4138 254.208C60.5978 254.844 59.5778 255.162 58.3538 255.162C57.3938 255.162 56.5418 254.952 55.7978 254.532C55.0538 254.1 54.4718 253.5 54.0518 252.732C53.6318 251.952 53.4218 251.046 53.4218 250.014ZM67.4179 246.576C67.7419 246.048 68.1619 245.634 68.6779 245.334C69.2059 245.034 69.8059 244.884 70.4779 244.884V247.53H69.8119C69.0199 247.53 68.4199 247.716 68.0119 248.088C67.6159 248.46 67.4179 249.108 67.4179 250.032V255H64.8979V245.028H67.4179V246.576ZM81.4452 249.798C81.4452 250.158 81.4212 250.482 81.3732 250.77H74.0832C74.1432 251.49 74.3952 252.054 74.8392 252.462C75.2832 252.87 75.8292 253.074 76.4772 253.074C77.4132 253.074 78.0792 252.672 78.4752 251.868H81.1932C80.9052 252.828 80.3532 253.62 79.5372 254.244C78.7212 254.856 77.7192 255.162 76.5312 255.162C75.5712 255.162 74.7072 254.952 73.9392 254.532C73.1832 254.1 72.5892 253.494 72.1572 252.714C71.7372 251.934 71.5272 251.034 71.5272 250.014C71.5272 248.982 71.7372 248.076 72.1572 247.296C72.5772 246.516 73.1652 245.916 73.9212 245.496C74.6772 245.076 75.5472 244.866 76.5312 244.866C77.4792 244.866 78.3252 245.07 79.0692 245.478C79.8252 245.886 80.4072 246.468 80.8152 247.224C81.2352 247.968 81.4452 248.826 81.4452 249.798ZM78.8352 249.078C78.8232 248.43 78.5892 247.914 78.1332 247.53C77.6772 247.134 77.1192 246.936 76.4592 246.936C75.8352 246.936 75.3072 247.128 74.8752 247.512C74.4552 247.884 74.1972 248.406 74.1012 249.078H78.8352ZM82.6366 249.978C82.6366 248.97 82.8346 248.076 83.2306 247.296C83.6386 246.516 84.1906 245.916 84.8866 245.496C85.5826 245.076 86.3566 244.866 87.2086 244.866C87.8566 244.866 88.4746 245.01 89.0626 245.298C89.6506 245.574 90.1186 245.946 90.4666 246.414V241.68H93.0226V255H90.4666V253.524C90.1546 254.016 89.7166 254.412 89.1526 254.712C88.5886 255.012 87.9346 255.162 87.1906 255.162C86.3506 255.162 85.5826 254.946 84.8866 254.514C84.1906 254.082 83.6386 253.476 83.2306 252.696C82.8346 251.904 82.6366 250.998 82.6366 249.978ZM90.4846 250.014C90.4846 249.402 90.3646 248.88 90.1246 248.448C89.8846 248.004 89.5606 247.668 89.1526 247.44C88.7446 247.2 88.3066 247.08 87.8386 247.08C87.3706 247.08 86.9386 247.194 86.5426 247.422C86.1466 247.65 85.8226 247.986 85.5706 248.43C85.3306 248.862 85.2106 249.378 85.2106 249.978C85.2106 250.578 85.3306 251.106 85.5706 251.562C85.8226 252.006 86.1466 252.348 86.5426 252.588C86.9506 252.828 87.3826 252.948 87.8386 252.948C88.3066 252.948 88.7446 252.834 89.1526 252.606C89.5606 252.366 89.8846 252.03 90.1246 251.598C90.3646 251.154 90.4846 250.626 90.4846 250.014ZM99.2998 255.162C98.4838 255.162 97.7518 255.018 97.1038 254.73C96.4558 254.43 95.9398 254.028 95.5558 253.524C95.1838 253.02 94.9798 252.462 94.9438 251.85H97.4818C97.5298 252.234 97.7158 252.552 98.0398 252.804C98.3758 253.056 98.7898 253.182 99.2818 253.182C99.7618 253.182 100.134 253.086 100.398 252.894C100.674 252.702 100.812 252.456 100.812 252.156C100.812 251.832 100.644 251.592 100.308 251.436C99.9838 251.268 99.4618 251.088 98.7418 250.896C97.9978 250.716 97.3858 250.53 96.9058 250.338C96.4378 250.146 96.0298 249.852 95.6818 249.456C95.3458 249.06 95.1778 248.526 95.1778 247.854C95.1778 247.302 95.3338 246.798 95.6458 246.342C95.9698 245.886 96.4258 245.526 97.0138 245.262C97.6138 244.998 98.3158 244.866 99.1198 244.866C100.308 244.866 101.256 245.166 101.964 245.766C102.672 246.354 103.062 247.152 103.134 248.16H100.722C100.686 247.764 100.518 247.452 100.218 247.224C99.9298 246.984 99.5398 246.864 99.0478 246.864C98.5918 246.864 98.2378 246.948 97.9858 247.116C97.7458 247.284 97.6258 247.518 97.6258 247.818C97.6258 248.154 97.7938 248.412 98.1298 248.592C98.4658 248.76 98.9878 248.934 99.6958 249.114C100.416 249.294 101.01 249.48 101.478 249.672C101.946 249.864 102.348 250.164 102.684 250.572C103.032 250.968 103.212 251.496 103.224 252.156C103.224 252.732 103.062 253.248 102.738 253.704C102.426 254.16 101.97 254.52 101.37 254.784C100.782 255.036 100.092 255.162 99.2998 255.162ZM108.933 250.014C108.933 248.982 109.143 248.082 109.563 247.314C109.983 246.534 110.565 245.934 111.309 245.514C112.053 245.082 112.905 244.866 113.865 244.866C115.101 244.866 116.121 245.178 116.925 245.802C117.741 246.414 118.287 247.278 118.563 248.394H115.845C115.701 247.962 115.455 247.626 115.107 247.386C114.771 247.134 114.351 247.008 113.847 247.008C113.127 247.008 112.557 247.272 112.137 247.8C111.717 248.316 111.507 249.054 111.507 250.014C111.507 250.962 111.717 251.7 112.137 252.228C112.557 252.744 113.127 253.002 113.847 253.002C114.867 253.002 115.533 252.546 115.845 251.634H118.563C118.287 252.714 117.741 253.572 116.925 254.208C116.109 254.844 115.089 255.162 113.865 255.162C112.905 255.162 112.053 254.952 111.309 254.532C110.565 254.1 109.983 253.5 109.563 252.732C109.143 251.952 108.933 251.046 108.933 250.014ZM124.838 255.162C123.878 255.162 123.014 254.952 122.246 254.532C121.478 254.1 120.872 253.494 120.428 252.714C119.996 251.934 119.78 251.034 119.78 250.014C119.78 248.994 120.002 248.094 120.446 247.314C120.902 246.534 121.52 245.934 122.3 245.514C123.08 245.082 123.95 244.866 124.91 244.866C125.87 244.866 126.74 245.082 127.52 245.514C128.3 245.934 128.912 246.534 129.356 247.314C129.812 248.094 130.04 248.994 130.04 250.014C130.04 251.034 129.806 251.934 129.338 252.714C128.882 253.494 128.258 254.1 127.466 254.532C126.686 254.952 125.81 255.162 124.838 255.162ZM124.838 252.966C125.294 252.966 125.72 252.858 126.116 252.642C126.524 252.414 126.848 252.078 127.088 251.634C127.328 251.19 127.448 250.65 127.448 250.014C127.448 249.066 127.196 248.34 126.692 247.836C126.2 247.32 125.594 247.062 124.874 247.062C124.154 247.062 123.548 247.32 123.056 247.836C122.576 248.34 122.336 249.066 122.336 250.014C122.336 250.962 122.57 251.694 123.038 252.21C123.518 252.714 124.118 252.966 124.838 252.966ZM134.408 241.68V255H131.888V241.68H134.408ZM139.418 241.68V255H136.898V241.68H139.418ZM151.178 249.798C151.178 250.158 151.154 250.482 151.106 250.77H143.816C143.876 251.49 144.128 252.054 144.572 252.462C145.016 252.87 145.562 253.074 146.21 253.074C147.146 253.074 147.812 252.672 148.208 251.868H150.926C150.638 252.828 150.086 253.62 149.27 254.244C148.454 254.856 147.452 255.162 146.264 255.162C145.304 255.162 144.44 254.952 143.672 254.532C142.916 254.1 142.322 253.494 141.89 252.714C141.47 251.934 141.26 251.034 141.26 250.014C141.26 248.982 141.47 248.076 141.89 247.296C142.31 246.516 142.898 245.916 143.654 245.496C144.41 245.076 145.28 244.866 146.264 244.866C147.212 244.866 148.058 245.07 148.802 245.478C149.558 245.886 150.14 246.468 150.548 247.224C150.968 247.968 151.178 248.826 151.178 249.798ZM148.568 249.078C148.556 248.43 148.322 247.914 147.866 247.53C147.41 247.134 146.852 246.936 146.192 246.936C145.568 246.936 145.04 247.128 144.608 247.512C144.188 247.884 143.93 248.406 143.834 249.078H148.568ZM152.369 250.014C152.369 248.982 152.579 248.082 152.999 247.314C153.419 246.534 154.001 245.934 154.745 245.514C155.489 245.082 156.341 244.866 157.301 244.866C158.537 244.866 159.557 245.178 160.361 245.802C161.177 246.414 161.723 247.278 161.999 248.394H159.281C159.137 247.962 158.891 247.626 158.543 247.386C158.207 247.134 157.787 247.008 157.283 247.008C156.563 247.008 155.993 247.272 155.573 247.8C155.153 248.316 154.943 249.054 154.943 250.014C154.943 250.962 155.153 251.7 155.573 252.228C155.993 252.744 156.563 253.002 157.283 253.002C158.303 253.002 158.969 252.546 159.281 251.634H161.999C161.723 252.714 161.177 253.572 160.361 254.208C159.545 254.844 158.525 255.162 157.301 255.162C156.341 255.162 155.489 254.952 154.745 254.532C154.001 254.1 153.419 253.5 152.999 252.732C152.579 251.952 152.369 251.046 152.369 250.014ZM166.779 247.098V251.922C166.779 252.258 166.857 252.504 167.013 252.66C167.181 252.804 167.457 252.876 167.841 252.876H169.011V255H167.427C165.303 255 164.241 253.968 164.241 251.904V247.098H163.053V245.028H164.241V242.562H166.779V245.028H169.011V247.098H166.779ZM180.094 249.798C180.094 250.158 180.07 250.482 180.022 250.77H172.732C172.792 251.49 173.044 252.054 173.488 252.462C173.932 252.87 174.478 253.074 175.126 253.074C176.062 253.074 176.728 252.672 177.124 251.868H179.842C179.554 252.828 179.002 253.62 178.186 254.244C177.37 254.856 176.368 255.162 175.18 255.162C174.22 255.162 173.356 254.952 172.588 254.532C171.832 254.1 171.238 253.494 170.806 252.714C170.386 251.934 170.176 251.034 170.176 250.014C170.176 248.982 170.386 248.076 170.806 247.296C171.226 246.516 171.814 245.916 172.57 245.496C173.326 245.076 174.196 244.866 175.18 244.866C176.128 244.866 176.974 245.07 177.718 245.478C178.474 245.886 179.056 246.468 179.464 247.224C179.884 247.968 180.094 248.826 180.094 249.798ZM177.484 249.078C177.472 248.43 177.238 247.914 176.782 247.53C176.326 247.134 175.768 246.936 175.108 246.936C174.484 246.936 173.956 247.128 173.524 247.512C173.104 247.884 172.846 248.406 172.75 249.078H177.484ZM181.285 249.978C181.285 248.97 181.483 248.076 181.879 247.296C182.287 246.516 182.839 245.916 183.535 245.496C184.231 245.076 185.005 244.866 185.857 244.866C186.505 244.866 187.123 245.01 187.711 245.298C188.299 245.574 188.767 245.946 189.115 246.414V241.68H191.671V255H189.115V253.524C188.803 254.016 188.365 254.412 187.801 254.712C187.237 255.012 186.583 255.162 185.839 255.162C184.999 255.162 184.231 254.946 183.535 254.514C182.839 254.082 182.287 253.476 181.879 252.696C181.483 251.904 181.285 250.998 181.285 249.978ZM189.133 250.014C189.133 249.402 189.013 248.88 188.773 248.448C188.533 248.004 188.209 247.668 187.801 247.44C187.393 247.2 186.955 247.08 186.487 247.08C186.019 247.08 185.587 247.194 185.191 247.422C184.795 247.65 184.471 247.986 184.219 248.43C183.979 248.862 183.859 249.378 183.859 249.978C183.859 250.578 183.979 251.106 184.219 251.562C184.471 252.006 184.795 252.348 185.191 252.588C185.599 252.828 186.031 252.948 186.487 252.948C186.955 252.948 187.393 252.834 187.801 252.606C188.209 252.366 188.533 252.03 188.773 251.598C189.013 251.154 189.133 250.626 189.133 250.014Z" fill="white"/>
</svg>
