<svg width="1440" height="900" viewBox="0 0 1440 900" fill="none" xmlns="http://www.w3.org/2000/svg">
<path opacity="0.0144928" d="M1643.52 1324.44C1653.23 1327.72 1663.94 1324.18 1669.78 1315.75L1855.3 1048.16C1858.75 1043.18 1860.1 1037.04 1859.05 1031.07L1778.17 572.039C1777.34 567.344 1775.07 563.023 1771.68 559.672L1481.34 272.722C1475.19 266.646 1466.16 264.53 1457.95 267.245L1188.37 356.411C1180.16 359.125 1174.17 366.212 1172.85 374.755L1110.87 778.238C1110.15 782.95 1110.91 787.771 1113.04 792.033L1321.83 1208.76C1324.54 1214.18 1329.29 1218.3 1335.03 1220.24L1643.52 1324.44Z" stroke="url(#paint0_linear_111_715)" stroke-width="4"/>
<path opacity="0.0289855" d="M1592.79 1331.23C1602.3 1334.99 1613.15 1332.03 1619.42 1323.95L1817.67 1068.6C1821.39 1063.81 1823.06 1057.73 1822.33 1051.71L1766.33 593.3C1765.75 588.553 1763.7 584.106 1760.48 580.576L1487.51 281.791C1481.69 275.418 1472.79 272.841 1464.46 275.119L1192.21 349.609C1183.88 351.887 1177.53 358.636 1175.77 367.086L1092.93 763.219C1091.95 767.9 1092.46 772.769 1094.37 777.149L1279.55 1200.22C1281.98 1205.78 1286.52 1210.15 1292.16 1212.38L1592.79 1331.23Z" stroke="url(#paint1_linear_111_715)" stroke-width="4"/>
<path opacity="0.0434783" d="M1542.21 1336.44C1551.49 1340.66 1562.44 1338.27 1569.12 1330.57L1779.33 1088.05C1783.31 1083.46 1785.31 1077.47 1784.9 1071.41L1753.48 614.957C1753.15 610.172 1751.33 605.609 1748.28 601.908L1493.13 292.312C1487.65 285.659 1478.91 282.631 1470.48 284.468L1196.36 344.247C1187.93 346.084 1181.25 352.477 1179.03 360.809L1075.94 748.525C1074.71 753.161 1074.96 758.065 1076.65 762.553L1238.13 1190.64C1240.27 1196.33 1244.58 1200.94 1250.12 1203.46L1542.21 1336.44Z" stroke="url(#paint2_linear_111_715)" stroke-width="4"/>
<path opacity="0.057971" d="M1491.86 1340.07C1500.88 1344.75 1511.91 1342.94 1518.98 1335.63L1740.35 1106.49C1744.58 1102.11 1746.9 1096.23 1746.8 1090.14L1739.61 636.953C1739.54 632.142 1737.95 627.477 1735.09 623.613L1498.14 304.243C1493 297.328 1484.44 293.858 1475.95 295.25L1200.73 340.327C1192.24 341.719 1185.23 347.739 1182.57 355.929L1059.89 734.205C1058.4 738.781 1058.39 743.708 1059.85 748.291L1197.62 1180.1C1199.47 1185.9 1203.54 1190.73 1208.95 1193.53L1491.86 1340.07Z" stroke="url(#paint3_linear_111_715)" stroke-width="4"/>
<path opacity="0.0724638" d="M1441.81 1342.16C1450.56 1347.27 1461.63 1346.05 1469.06 1339.15L1700.78 1123.89C1705.25 1119.74 1707.88 1113.98 1708.11 1107.89L1724.72 659.23C1724.89 654.407 1723.55 649.65 1720.88 645.633L1502.44 317.536C1497.68 310.379 1489.32 306.477 1480.77 307.421L1205.25 337.848C1196.7 338.791 1189.4 344.423 1186.31 352.447L1044.73 720.303C1043 724.807 1042.72 729.742 1043.95 734.41L1158.06 1168.63C1159.61 1174.53 1163.44 1179.57 1168.7 1182.65L1441.81 1342.16Z" stroke="url(#paint4_linear_111_715)" stroke-width="4"/>
<path opacity="0.0869565" d="M1392.15 1342.74C1400.61 1348.27 1411.7 1347.63 1419.47 1341.16L1660.68 1140.22C1665.38 1136.31 1668.32 1130.7 1668.87 1124.61L1708.78 681.73C1709.21 676.908 1708.12 672.072 1705.64 667.911L1505.98 332.14C1501.59 324.76 1493.46 320.439 1484.89 320.934L1209.84 336.802C1201.26 337.297 1193.68 342.525 1190.17 350.36L1030.45 706.865C1028.47 711.283 1027.94 716.213 1028.92 720.953L1119.5 1156.31C1120.74 1162.29 1124.32 1167.53 1129.43 1170.87L1392.15 1342.74Z" stroke="url(#paint5_linear_111_715)" stroke-width="4"/>
<path opacity="0.101449" d="M1342.97 1341.84C1351.11 1347.78 1362.18 1347.72 1370.26 1341.7L1620.12 1155.48C1625.03 1151.82 1628.27 1146.36 1629.14 1140.31L1691.8 704.396C1692.49 699.588 1691.64 694.685 1689.37 690.389L1508.69 348.002C1504.69 340.419 1496.8 335.691 1488.23 335.737L1214.41 337.18C1205.83 337.225 1198 342.035 1194.08 349.66L1017.01 693.932C1014.79 698.251 1013.99 703.163 1014.74 707.963L1081.98 1143.19C1082.91 1149.24 1086.22 1154.66 1091.16 1158.27L1342.97 1341.84Z" stroke="url(#paint6_linear_111_715)" stroke-width="4"/>
<path opacity="0.115942" d="M1294.33 1339.51C1302.14 1345.83 1313.16 1346.35 1321.53 1340.79L1579.16 1169.64C1584.26 1166.25 1587.8 1160.96 1588.99 1154.95L1673.77 727.168C1674.72 722.388 1674.12 717.431 1672.07 713.011L1510.51 365.064C1506.9 357.298 1499.28 352.178 1490.73 351.775L1218.89 338.965C1210.34 338.562 1202.27 342.943 1197.95 350.334L1004.38 681.546C1001.93 685.753 1000.87 690.633 1001.36 695.481L1045.53 1129.34C1046.15 1135.44 1049.18 1141.04 1053.94 1144.89L1294.33 1339.51Z" stroke="url(#paint7_linear_111_715)" stroke-width="4"/>
<path opacity="0.130435" d="M1246.31 1335.79C1253.77 1342.48 1264.71 1343.57 1273.34 1338.48L1537.85 1182.7C1543.14 1179.59 1546.96 1174.49 1548.47 1168.54L1654.7 749.99C1655.9 745.251 1655.56 740.252 1653.73 735.718L1511.37 383.265C1508.17 375.338 1500.84 369.841 1492.33 368.992L1223.21 342.139C1214.7 341.291 1206.43 345.23 1201.72 352.368L992.531 669.744C989.84 673.827 988.52 678.66 988.763 683.543L1010.19 1114.83C1010.5 1120.96 1013.24 1126.71 1017.81 1130.81L1246.31 1335.79Z" stroke="url(#paint8_linear_111_715)" stroke-width="4"/>
<path opacity="0.144928" d="M1198.99 1330.72C1206.08 1337.76 1216.9 1339.42 1225.77 1334.82L1496.26 1194.65C1501.72 1191.82 1505.82 1186.92 1507.64 1181.06L1634.58 772.804C1636.04 768.119 1635.96 763.091 1634.35 758.455L1511.23 402.542C1508.44 394.475 1501.41 388.617 1492.97 387.326L1227.29 346.68C1218.85 345.389 1210.39 348.878 1205.32 355.741L981.416 658.564C978.5 662.509 976.921 667.283 976.91 672.188L975.986 1099.72C975.973 1105.87 978.421 1111.76 982.783 1116.09L1198.99 1330.72Z" stroke="url(#paint9_linear_111_715)" stroke-width="4"/>
<path opacity="0.15942" d="M1152.42 1324.36C1159.13 1331.73 1169.81 1333.94 1178.89 1329.84L1454.45 1205.48C1460.06 1202.95 1464.43 1198.27 1466.56 1192.5L1613.43 795.552C1615.14 790.936 1615.32 785.893 1613.95 781.165L1510.03 422.829C1507.66 414.643 1500.95 408.441 1492.6 406.713L1231.06 352.559C1222.72 350.831 1214.1 353.86 1208.67 360.43L971.002 648.039C967.867 651.833 966.031 656.534 965.765 661.45L942.939 1084.08C942.607 1090.22 944.753 1096.25 948.898 1100.8L1152.42 1324.36Z" stroke="url(#paint10_linear_111_715)" stroke-width="4"/>
<path opacity="0.173913" d="M1106.68 1316.77C1112.98 1324.44 1123.5 1327.2 1132.75 1323.61L1412.49 1215.19C1418.24 1212.97 1422.85 1208.52 1425.29 1202.86L1591.26 818.18C1593.22 813.645 1593.66 808.6 1592.53 803.792L1507.73 444.058C1505.78 435.775 1499.41 429.247 1491.18 427.088L1234.45 359.747C1226.22 357.588 1217.47 360.15 1211.7 366.408L961.248 638.2C957.901 641.833 955.812 646.447 955.29 651.359L911.071 1067.97C910.42 1074.11 912.259 1080.24 916.174 1085.01L1106.68 1316.77Z" stroke="url(#paint11_linear_111_715)" stroke-width="4"/>
<path opacity="0.188406" d="M1061.81 1307.99C1067.7 1315.95 1078.02 1319.24 1087.43 1316.17L1370.43 1223.79C1376.3 1221.88 1381.15 1217.68 1383.89 1212.15L1568.08 840.632C1570.28 836.191 1570.99 831.157 1570.1 826.281L1504.28 466.159C1502.75 457.801 1496.74 450.966 1488.65 448.383L1237.4 368.209C1229.3 365.626 1220.45 367.716 1214.36 373.644L952.112 629.078C948.561 632.537 946.223 637.051 945.445 641.946L880.397 1051.48C879.428 1057.58 880.954 1063.81 884.63 1068.78L1061.81 1307.99Z" stroke="url(#paint12_linear_111_715)" stroke-width="4"/>
<path opacity="0.202899" d="M1017.89 1298.1C1023.35 1306.32 1033.45 1310.13 1042.98 1307.58L1328.33 1231.29C1334.3 1229.69 1339.38 1225.75 1342.42 1220.36L1543.91 862.854C1546.35 858.52 1547.32 853.511 1546.68 848.578L1499.65 489.059C1498.55 480.648 1492.91 473.525 1484.97 470.527L1239.83 377.907C1231.9 374.909 1222.96 376.522 1216.57 382.104L943.553 620.699C939.807 623.973 937.224 628.373 936.19 633.239L850.932 1034.66C849.646 1040.71 850.853 1047.03 854.28 1052.18L1017.89 1298.1Z" stroke="url(#paint13_linear_111_715)" stroke-width="4"/>
<path opacity="0.217391" d="M974.951 1287.16C979.978 1295.61 989.821 1299.93 999.445 1297.91L1286.25 1237.68C1292.31 1236.41 1297.61 1232.74 1300.93 1227.51L1518.76 884.794C1521.44 880.58 1522.68 875.609 1522.28 870.632L1493.8 512.685C1493.13 504.243 1487.87 496.853 1480.11 493.449L1241.7 388.801C1233.94 385.397 1224.94 386.53 1218.28 391.751L935.527 613.088C931.595 616.166 928.772 620.439 927.483 625.263L822.681 1017.59C821.082 1023.58 821.967 1029.96 825.135 1035.28L974.951 1287.16Z" stroke="url(#paint14_linear_111_715)" stroke-width="4"/>
<path opacity="0.231884" d="M933.054 1275.22C937.633 1283.88 947.2 1288.7 956.887 1287.21L1244.25 1242.99C1250.39 1242.04 1255.88 1238.66 1259.48 1233.6L1492.67 906.4C1495.58 902.318 1497.07 897.399 1496.93 892.39L1486.7 536.962C1486.46 528.511 1481.6 520.874 1474.04 517.076L1242.93 400.847C1235.37 397.048 1226.35 397.7 1219.42 402.544L927.988 606.267C923.881 609.138 920.824 613.272 919.282 618.04L795.651 1000.34C793.741 1006.25 794.3 1012.67 797.201 1018.16L933.054 1275.22Z" stroke="url(#paint15_linear_111_715)" stroke-width="4"/>
<path opacity="0.246377" d="M892.24 1262.36C896.363 1271.22 905.629 1276.5 915.349 1275.54L1202.39 1247.22C1208.58 1246.61 1214.26 1243.52 1218.13 1238.66L1465.65 927.622C1468.78 923.686 1470.53 918.831 1470.64 913.802L1478.33 561.813C1478.52 553.375 1474.06 545.514 1466.73 541.332L1243.47 413.997C1236.14 409.816 1227.11 409.986 1219.94 414.44L920.893 600.254C916.62 602.909 913.336 606.891 911.542 611.591L769.841 982.976C767.624 988.787 767.855 995.247 770.48 1000.88L892.24 1262.36Z" stroke="url(#paint16_linear_111_715)" stroke-width="4"/>
<path opacity="0.26087" d="M852.55 1248.65C856.209 1257.67 865.149 1263.41 874.873 1262.98L1160.73 1250.41C1166.95 1250.13 1172.8 1247.35 1176.93 1242.68L1437.73 948.412C1441.07 944.633 1443.09 939.857 1443.45 934.821L1468.67 587.163C1469.28 578.76 1465.25 570.695 1458.16 566.144L1243.28 428.204C1236.19 423.652 1227.17 423.342 1219.79 427.395L914.193 595.068C909.766 597.497 906.262 601.315 904.22 605.933L745.247 965.571C742.729 971.269 742.629 977.744 744.971 983.517L852.55 1248.65Z" stroke="url(#paint17_linear_111_715)" stroke-width="4"/>
<path opacity="0.275362" d="M814.017 1234.16C817.206 1243.32 825.799 1249.49 835.497 1249.6L1119.3 1252.56C1125.54 1252.62 1131.54 1250.15 1135.92 1245.7L1408.94 968.725C1412.5 965.115 1414.76 960.43 1415.38 955.4L1457.7 612.933C1458.73 604.586 1455.13 596.342 1448.3 591.434L1242.29 443.414C1235.46 438.506 1226.5 437.718 1218.91 441.359L907.843 590.721C903.274 592.915 899.557 596.558 897.271 601.082L721.862 948.191C719.047 953.761 718.617 960.236 720.669 966.129L814.017 1234.16Z" stroke="url(#paint18_linear_111_715)" stroke-width="4"/>
<path opacity="0.289855" d="M776.673 1218.96C779.389 1228.24 787.612 1234.83 797.256 1235.45L1078.18 1253.7C1084.42 1254.1 1090.56 1251.95 1095.17 1247.74L1379.31 988.516C1383.07 985.086 1385.59 980.506 1386.47 975.494L1445.42 639.047C1446.86 630.777 1443.69 622.376 1437.14 617.127L1240.47 459.574C1233.92 454.325 1225.03 453.063 1217.27 456.282L901.796 587.227C897.096 589.178 893.176 592.632 890.649 597.05L699.674 930.905C696.57 936.332 695.808 942.789 697.565 948.789L776.673 1218.96Z" stroke="url(#paint19_linear_111_715)" stroke-width="4"/>
<path opacity="0.304348" d="M740.546 1203.13C742.784 1212.49 750.619 1219.47 760.179 1220.62L1037.41 1253.86C1043.63 1254.6 1049.88 1252.78 1054.72 1248.81L1348.89 1007.74C1352.84 1004.5 1355.6 1000.04 1356.73 995.06L1431.8 665.426C1433.67 657.255 1430.93 648.719 1424.68 643.145L1237.77 476.628C1231.51 471.053 1222.72 469.323 1214.82 472.111L896.004 584.593C891.186 586.293 887.071 589.549 884.309 593.847L678.668 913.78C675.281 919.049 674.19 925.471 675.646 931.562L740.546 1203.13Z" stroke="url(#paint20_linear_111_715)" stroke-width="4"/>
<path opacity="0.318841" d="M705.658 1186.74C707.416 1196.17 714.842 1203.52 724.29 1205.17L997.032 1253.07C1003.21 1254.15 1009.57 1252.66 1014.62 1248.95L1317.69 1026.36C1321.83 1023.33 1324.83 1019 1326.22 1014.06L1416.87 691.993C1419.13 683.942 1416.85 675.296 1410.9 669.413L1234.15 494.517C1228.21 488.634 1219.54 486.442 1211.51 488.793L890.42 582.827C885.497 584.269 881.197 587.315 878.204 591.481L658.825 896.88C655.164 901.976 653.744 908.347 654.895 914.515L705.658 1186.74Z" stroke="url(#paint21_linear_111_715)" stroke-width="4"/>
<path opacity="0.333333" d="M672.026 1169.86C673.304 1179.33 680.305 1187.02 689.613 1189.19L957.101 1251.35C963.224 1252.77 969.662 1251.63 974.919 1248.18L1285.78 1044.34C1290.09 1041.52 1293.32 1037.33 1294.96 1032.45L1400.6 718.672C1403.27 710.761 1401.43 702.028 1395.81 695.854L1229.58 513.181C1223.97 507.007 1215.44 504.362 1207.32 506.27L884.996 581.932C879.982 583.109 875.507 585.935 872.29 589.958L640.123 880.27C636.196 885.179 634.451 891.482 635.292 897.711L672.026 1169.86Z" stroke="url(#paint22_linear_111_715)" stroke-width="4"/>
<path opacity="0.347826" d="M639.664 1152.57C640.463 1162.06 647.022 1170.07 656.162 1172.73L917.657 1248.75C923.705 1250.51 930.209 1249.71 935.651 1246.54L1253.17 1061.65C1257.64 1059.04 1261.11 1055.01 1263 1050.2L1383.02 745.387C1386.07 737.635 1384.69 728.839 1379.42 722.392L1224.03 532.561C1218.75 526.114 1210.4 523.025 1202.2 524.486L879.686 581.909C874.593 582.816 869.955 585.412 866.52 589.28L622.535 864.01C618.353 868.719 616.285 874.937 616.813 881.213L639.664 1152.57Z" stroke="url(#paint23_linear_111_715)" stroke-width="4"/>
<path opacity="0.362319" d="M608.581 1134.95C608.902 1144.43 615.006 1152.74 623.952 1155.88L878.744 1245.29C884.698 1247.38 891.249 1246.93 896.863 1244.05L1219.93 1078.24C1224.55 1075.87 1228.23 1072 1230.38 1067.27L1364.13 772.063C1367.56 764.49 1366.64 755.654 1361.72 748.954L1217.47 552.594C1212.54 545.893 1204.39 542.371 1196.14 543.381L874.441 582.757C869.285 583.388 864.494 585.746 860.849 589.447L606.033 848.162C601.605 852.658 599.219 858.775 599.433 865.081L608.581 1134.95Z" stroke="url(#paint24_linear_111_715)" stroke-width="4"/>
<path opacity="0.376812" d="M578.782 1117.07C578.629 1126.52 584.263 1135.09 592.989 1138.7L840.401 1241.02C846.243 1243.44 852.822 1243.34 858.592 1240.76L1186.08 1094.09C1190.84 1091.96 1194.74 1088.27 1197.13 1083.63L1343.95 798.626C1347.75 791.25 1347.28 782.399 1342.73 775.465L1209.86 573.216C1205.31 566.282 1197.37 562.338 1189.09 562.897L869.216 584.472C864.01 584.824 859.079 586.934 855.231 590.457L590.584 832.784C585.921 837.053 583.222 843.053 583.119 849.374L578.782 1117.07Z" stroke="url(#paint25_linear_111_715)" stroke-width="4"/>
<path opacity="0.391304" d="M550.267 1099.01C549.644 1108.4 554.797 1117.21 563.278 1121.28L802.665 1235.97C808.378 1238.71 814.966 1238.97 820.876 1236.69L1151.68 1109.18C1156.57 1107.29 1160.67 1103.79 1163.3 1099.26L1322.49 825.003C1326.65 817.843 1326.64 809.001 1322.46 801.853L1201.2 594.365C1197.03 587.216 1189.33 582.865 1181.05 582.971L863.965 587.049C858.725 587.116 853.665 588.971 849.623 592.306L576.152 817.93C571.267 821.961 568.259 827.828 567.84 834.148L550.267 1099.01Z" stroke="url(#paint26_linear_111_715)" stroke-width="4"/>
<path opacity="0.405797" d="M523.032 1080.84C521.945 1090.14 526.607 1099.17 534.819 1103.68L765.571 1230.19C771.136 1233.24 777.715 1233.86 783.749 1231.89L1116.77 1123.47C1121.78 1121.84 1126.07 1118.54 1128.94 1114.13L1299.79 851.126C1304.29 844.198 1304.73 835.388 1300.94 828.047L1191.47 615.975C1187.68 608.633 1180.25 603.889 1171.99 603.544L858.642 590.478C853.383 590.259 848.208 591.85 843.98 594.986L562.7 803.653C557.603 807.435 554.295 813.154 553.559 819.457L523.032 1080.84Z" stroke="url(#paint27_linear_111_715)" stroke-width="4"/>
<path opacity="0.42029" d="M497.069 1062.63C495.526 1071.83 499.688 1081.05 507.607 1085.97L729.151 1223.71C734.551 1227.07 741.101 1228.04 747.243 1226.4L1081.4 1136.94C1086.51 1135.58 1090.99 1132.49 1094.09 1128.21L1275.86 876.924C1280.69 870.245 1281.58 861.491 1278.19 853.978L1180.65 637.982C1177.26 630.469 1170.11 625.346 1161.9 624.554L853.203 594.748C847.94 594.24 842.663 595.561 838.259 598.488L550.186 790.006C544.891 793.527 541.289 799.082 540.237 805.354L497.069 1062.63Z" stroke="url(#paint28_linear_111_715)" stroke-width="4"/>
<path opacity="0.434783" d="M472.365 1044.46C470.374 1053.53 474.03 1062.9 481.634 1068.23L693.434 1216.59C698.653 1220.25 705.154 1221.57 711.388 1220.25L1045.62 1149.58C1050.82 1148.49 1055.47 1145.62 1058.8 1141.48L1250.74 902.332C1255.89 895.918 1257.22 887.243 1254.24 879.58L1168.74 660.322C1165.75 652.659 1158.9 647.175 1150.77 645.939L847.605 599.847C842.354 599.048 836.987 600.092 832.418 602.802L538.567 777.035C533.086 780.285 529.199 785.662 527.832 791.886L472.365 1044.46Z" stroke="url(#paint29_linear_111_715)" stroke-width="4"/>
<path opacity="0.449275" d="M448.905 1026.39C446.474 1035.31 449.619 1044.82 456.887 1050.53L658.447 1208.86C663.468 1212.81 669.902 1214.49 676.209 1213.5L1009.47 1161.37C1014.75 1160.55 1019.57 1157.92 1023.12 1153.93L1224.47 927.286C1229.92 921.151 1231.69 912.578 1229.11 904.787L1155.73 682.93C1153.15 675.139 1146.62 669.311 1138.59 667.637L841.806 605.758C836.581 604.668 831.14 605.43 826.415 607.912L527.795 764.786C522.143 767.755 517.98 772.94 516.301 779.1L448.905 1026.39Z" stroke="url(#paint30_linear_111_715)" stroke-width="4"/>
<path opacity="0.463768" d="M426.667 1008.5C423.809 1017.25 426.437 1026.86 433.351 1032.93L624.214 1200.58C629.021 1204.8 635.368 1206.83 641.732 1206.18L973.016 1172.3C978.351 1171.75 983.328 1169.36 987.085 1165.53L1197.07 951.724C1202.81 945.883 1205.01 937.434 1202.85 929.538L1141.62 705.742C1139.46 697.846 1133.26 691.693 1125.35 689.586L835.763 612.464C830.581 611.083 825.079 611.558 820.209 613.804L517.823 753.3C512.014 755.98 507.584 760.958 505.596 767.039L426.667 1008.5Z" stroke="url(#paint31_linear_111_715)" stroke-width="4"/>
<path opacity="0.478261" d="M405.629 990.854C402.353 999.407 404.465 1009.09 411.004 1015.5L590.756 1191.78C595.333 1196.27 601.575 1198.64 607.978 1198.33L936.293 1182.34C941.676 1182.08 946.796 1179.94 950.759 1176.29L1168.6 975.587C1174.6 970.054 1177.23 961.75 1175.49 953.771L1126.4 728.695C1124.66 720.716 1118.82 714.258 1111.06 711.727L829.438 619.944C824.314 618.275 818.766 618.457 813.763 620.46L508.601 742.617C502.649 745 497.962 749.758 495.67 755.744L405.629 990.854Z" stroke="url(#paint32_linear_111_715)" stroke-width="4"/>
<path opacity="0.492754" d="M385.762 973.514C382.082 981.854 383.676 991.58 389.823 998.31L558.091 1182.52C562.423 1187.26 568.542 1189.97 574.966 1190L899.358 1191.51C904.774 1191.53 910.025 1189.65 914.186 1186.18L1139.09 998.82C1145.35 993.606 1148.38 985.47 1147.06 977.431L1110.1 751.726C1108.78 743.687 1103.31 736.944 1095.71 733.999L822.791 628.179C817.741 626.221 812.162 626.108 807.038 627.86L500.075 732.773C493.997 734.851 489.064 739.376 486.471 745.253L385.762 973.514Z" stroke="url(#paint33_linear_111_715)" stroke-width="4"/>
<path opacity="0.507246" d="M367.035 956.544C362.965 964.652 364.041 974.394 369.782 981.418L526.234 1172.84C530.308 1177.82 536.284 1180.87 542.711 1181.24L862.26 1199.78C867.694 1200.1 873.064 1198.47 877.415 1195.2L1108.59 1021.37C1115.09 1016.49 1118.52 1008.54 1117.63 1000.46L1092.71 774.773C1091.81 766.697 1086.73 759.69 1079.32 756.342L815.786 637.143C810.826 634.9 805.231 634.488 799.997 635.982L492.193 723.8C486.003 725.566 480.836 729.845 477.948 735.598L367.035 956.544Z" stroke="url(#paint34_linear_111_715)" stroke-width="4"/>
<path opacity="0.521739" d="M349.414 940.006C344.969 947.862 345.53 957.593 350.85 964.886L495.199 1162.79C499.001 1168 504.817 1171.38 511.228 1172.1L825.05 1207.16C830.488 1207.77 835.964 1206.42 840.495 1203.35L1077.16 1043.19C1083.87 1038.64 1087.69 1030.9 1087.23 1022.81L1074.24 797.777C1073.78 789.686 1069.09 782.438 1061.9 778.697L808.387 646.812C803.533 644.287 797.938 643.575 792.606 644.804L484.898 715.726C478.612 717.175 473.223 721.198 470.046 726.812L349.414 940.006Z" stroke="url(#paint35_linear_111_715)" stroke-width="4"/>
<path opacity="0.536232" d="M332.861 923.956C328.056 931.543 328.107 941.235 332.992 948.771L464.996 1152.43C468.512 1157.85 474.149 1161.55 480.527 1162.6L787.779 1213.65C793.205 1214.55 798.774 1213.48 803.477 1210.63L1044.83 1064.22C1051.74 1060.03 1055.95 1052.52 1055.91 1044.44L1054.73 820.677C1054.68 812.595 1050.4 805.128 1043.45 801.009L800.56 657.158C795.828 654.355 790.247 653.341 784.831 654.3L478.134 708.579C471.768 709.706 466.17 713.46 462.711 718.921L332.861 923.956Z" stroke="url(#paint36_linear_111_715)" stroke-width="4"/>
<path opacity="0.550725" d="M317.336 908.45C312.187 915.752 311.733 925.376 316.173 933.131L435.631 1141.79C438.85 1147.41 444.291 1151.42 450.617 1152.82L750.496 1219.25C755.895 1220.45 761.544 1219.66 766.408 1217.03L1011.68 1084.44C1018.77 1080.6 1023.34 1073.34 1023.72 1065.29L1034.17 843.418C1034.55 835.366 1030.69 827.703 1023.99 823.22L792.274 668.153C787.678 665.077 782.129 663.761 776.641 664.443L471.843 702.38C465.414 703.181 459.621 706.655 455.887 711.95L317.336 908.45Z" stroke="url(#paint37_linear_111_715)" stroke-width="4"/>
<path opacity="0.565217" d="M302.794 893.54C297.319 900.541 296.368 910.071 300.352 918.017L407.108 1130.93C410.019 1136.73 415.247 1141.04 421.502 1142.78L713.251 1223.97C718.607 1225.46 724.322 1224.96 729.338 1222.56L977.75 1103.79C985.002 1100.32 989.918 1093.32 990.716 1085.32L1012.61 865.942C1013.4 857.944 1009.97 850.109 1003.54 845.277L783.498 679.766C779.055 676.424 773.551 674.804 768.006 675.207L465.967 697.149C459.491 697.619 453.515 700.805 449.516 705.92L302.794 893.54Z" stroke="url(#paint38_linear_111_715)" stroke-width="4"/>
<path opacity="0.57971" d="M289.191 879.275C283.407 885.961 281.967 895.371 285.488 903.481L379.431 1119.89C382.022 1125.86 387.02 1130.46 393.188 1132.53L676.093 1227.81C681.392 1229.6 687.158 1229.39 692.316 1227.23L943.103 1122.25C950.496 1119.15 955.745 1112.43 956.957 1104.51L990.05 888.196C991.262 880.274 988.263 872.291 982.133 867.128L774.204 691.966C769.928 688.364 764.487 686.443 758.898 686.561L460.446 692.9C453.94 693.038 447.797 695.926 443.539 700.847L289.191 879.275Z" stroke="url(#paint39_linear_111_715)" stroke-width="4"/>
<path opacity="0.594203" d="M276.476 865.701C270.403 872.059 268.485 881.322 271.535 889.569L352.596 1108.73C354.858 1114.85 359.611 1119.72 365.672 1122.13L639.07 1230.79C644.295 1232.87 650.099 1232.96 655.386 1231.05L907.798 1139.77C915.312 1137.05 920.878 1130.63 922.498 1122.81L966.534 910.129C968.154 902.304 965.597 894.199 959.779 888.721L764.365 704.72C760.272 700.866 754.909 698.645 749.289 698.476L455.22 689.645C448.701 689.449 442.405 692.03 437.899 696.746L276.476 865.701Z" stroke="url(#paint40_linear_111_715)" stroke-width="4"/>
<path opacity="0.608696" d="M264.601 852.862C258.257 858.877 255.872 867.97 258.447 876.325L326.601 1097.49C328.526 1103.74 333.018 1108.87 338.955 1111.6L602.228 1232.93C607.364 1235.29 613.192 1235.68 618.598 1234.03L871.895 1156.34C879.512 1154 885.377 1147.89 887.399 1140.19L942.089 931.691C944.111 923.985 942 915.781 936.511 910.008L753.958 717.995C750.062 713.897 744.792 711.377 739.156 710.918L450.229 687.393C443.714 686.862 437.281 689.129 432.537 693.627L264.601 852.862Z" stroke="url(#paint41_linear_111_715)" stroke-width="4"/>
<path opacity="0.623188" d="M253.512 840.795C246.917 846.458 244.078 855.355 246.174 863.791L301.439 1086.21C303.019 1092.57 307.235 1097.95 313.03 1101.01L565.614 1234.23C570.646 1236.88 576.482 1237.58 581.996 1236.18L835.458 1171.93C843.156 1169.98 849.303 1164.19 851.718 1156.62L916.748 952.834C919.162 945.268 917.502 936.992 912.357 930.942L742.959 731.755C739.274 727.422 734.114 724.608 728.475 723.857L445.414 686.148C438.92 685.282 432.365 687.228 427.394 691.496L253.512 840.795Z" stroke="url(#paint42_linear_111_715)" stroke-width="4"/>
<path opacity="0.637681" d="M243.155 829.537C236.329 834.837 233.05 843.515 234.666 852.004L277.101 1074.95C278.329 1081.4 282.256 1087.01 287.892 1090.38L529.273 1234.71C534.184 1237.65 540.014 1238.65 545.624 1237.52L798.549 1186.51C806.309 1184.94 812.719 1179.5 815.517 1172.09L890.546 973.515C893.344 966.109 892.137 957.785 887.35 951.48L731.349 745.964C727.889 741.406 722.854 738.301 717.228 737.257L440.715 685.911C434.258 684.712 427.597 686.33 422.41 690.357L243.155 829.537Z" stroke="url(#paint43_linear_111_715)" stroke-width="4"/>
<path opacity="0.652174" d="M233.474 819.12C226.438 824.047 222.735 832.485 223.87 840.999L253.577 1063.73C254.447 1070.26 258.071 1076.1 263.531 1079.77L493.247 1234.41C498.023 1237.63 503.832 1238.93 509.525 1238.07L761.231 1200.07C769.033 1198.9 775.687 1193.8 778.858 1186.58L863.522 993.69C866.693 986.465 865.939 978.119 861.525 971.579L719.108 760.586C715.887 755.814 710.993 752.423 705.394 751.084L436.071 686.68C429.67 685.149 422.919 686.434 417.528 690.21L233.474 819.12Z" stroke="url(#paint44_linear_111_715)" stroke-width="4"/>
<path opacity="0.666667" d="M224.411 809.572C217.186 814.12 213.075 822.295 213.732 830.806L230.852 1052.62C231.36 1059.2 234.668 1065.24 239.936 1069.22L457.579 1233.34C462.205 1236.83 467.977 1238.44 473.741 1237.86L723.57 1212.61C731.394 1211.81 738.271 1207.08 741.805 1200.06L835.715 1013.32C839.248 1006.3 838.947 997.952 834.916 991.2L706.222 775.583C703.253 770.609 698.516 766.938 692.957 765.304L431.425 688.45C425.095 686.59 418.271 687.537 412.688 691.052L224.411 809.572Z" stroke="url(#paint45_linear_111_715)" stroke-width="4"/>
<path opacity="0.681159" d="M215.909 800.918C208.516 805.08 204.015 812.972 204.197 821.453L208.912 1041.65C209.053 1048.26 212.034 1054.49 217.093 1058.75L422.309 1231.53C426.769 1235.28 432.489 1237.2 438.312 1236.9L685.629 1224.1C693.455 1223.69 700.536 1219.33 704.418 1212.52L807.167 1032.37C811.049 1025.56 811.198 1017.25 807.563 1010.31L692.677 790.918C689.972 785.753 685.406 781.808 679.904 779.881L426.718 691.211C420.477 689.025 413.596 689.631 407.833 692.875L215.909 800.918Z" stroke="url(#paint46_linear_111_715)" stroke-width="4"/>
<path opacity="0.695652" d="M207.907 793.18C200.369 796.95 195.496 804.541 195.207 812.964L187.736 1030.86C187.509 1037.48 190.152 1043.88 194.987 1048.42L387.475 1229C391.755 1233.02 397.408 1235.24 403.276 1235.23L647.472 1234.54C655.28 1234.52 662.544 1230.54 666.762 1223.97L777.921 1050.81C782.139 1044.23 782.735 1035.97 779.504 1028.86L678.46 806.553C676.031 801.21 671.653 796.998 666.22 794.779L421.893 694.95C415.757 692.443 408.836 692.705 402.907 695.67L207.907 793.18Z" stroke="url(#paint47_linear_111_715)" stroke-width="4"/>
<path opacity="0.710145" d="M200.346 786.375C192.684 789.749 187.46 797.02 186.707 805.358L167.307 1020.29C166.71 1026.9 169.004 1033.46 173.599 1038.26L353.115 1225.79C357.2 1230.06 362.77 1232.59 368.671 1232.86L609.164 1243.94C616.935 1244.3 624.361 1240.7 628.901 1234.38L748.023 1068.59C752.563 1062.28 753.601 1054.09 750.782 1046.84L663.562 822.448C661.422 816.942 657.245 812.471 651.897 809.96L416.894 699.653C410.879 696.829 403.936 696.745 397.854 699.423L200.346 786.375Z" stroke="url(#paint48_linear_111_715)" stroke-width="4"/>
<path opacity="0.724638" d="M193.167 780.517C185.401 783.491 179.846 790.425 178.638 798.653L147.601 1009.97C146.633 1016.56 148.571 1023.25 152.912 1028.3L319.262 1221.93C323.137 1226.44 328.61 1229.27 334.531 1229.84L570.768 1252.29C578.483 1253.02 586.049 1249.82 590.894 1243.77L717.518 1085.71C722.364 1079.66 723.837 1071.58 721.438 1064.21L647.976 838.565C646.134 832.91 642.174 828.188 636.926 825.39L411.667 705.299C405.789 702.165 398.84 701.734 392.619 704.117L193.167 780.517Z" stroke="url(#paint49_linear_111_715)" stroke-width="4"/>
<path opacity="0.73913" d="M186.307 775.614C178.461 778.188 172.596 784.771 170.942 792.861L128.595 999.948C127.258 1006.49 128.829 1013.29 132.902 1018.58L285.949 1217.44C289.602 1222.19 294.962 1225.32 300.889 1226.18L532.346 1259.6C539.987 1260.71 547.671 1257.9 552.806 1252.14L686.454 1102.13C691.59 1096.36 693.491 1088.41 691.516 1080.94L631.696 854.866C630.164 849.077 626.434 844.113 621.3 841.03L406.157 711.868C400.432 708.431 393.495 707.652 387.15 709.733L186.307 775.614Z" stroke="url(#paint50_linear_111_715)" stroke-width="4"/>
<path opacity="0.753623" d="M179.707 771.675C171.802 773.848 165.65 780.064 163.561 787.992L110.264 990.253C108.558 996.726 109.757 1003.62 113.549 1009.14L253.208 1212.38C256.624 1217.35 261.856 1220.78 267.776 1221.93L493.961 1265.89C501.509 1267.36 509.29 1264.96 514.698 1259.49L654.88 1117.82C660.288 1112.36 662.607 1104.55 661.061 1097.02L614.72 871.311C613.507 865.403 610.022 860.208 605.015 856.845L400.315 719.335C394.758 715.602 387.85 714.475 381.395 716.249L179.707 771.675Z" stroke="url(#paint51_linear_111_715)" stroke-width="4"/>
<path opacity="0.768116" d="M173.307 768.701C165.363 770.473 158.948 776.311 156.437 784.052L92.5786 980.916C90.5079 987.3 91.3288 994.27 94.826 999.998L221.067 1206.77C224.233 1211.95 229.321 1215.67 235.222 1217.12L455.673 1271.16C463.11 1272.99 470.966 1270.99 476.629 1265.83L622.842 1132.78C628.506 1127.63 631.233 1119.99 630.117 1112.42L597.046 887.863C596.161 881.853 592.934 876.437 588.07 872.797L394.089 727.671C388.716 723.65 381.854 722.178 375.303 723.639L173.307 768.701Z" stroke="url(#paint52_linear_111_715)" stroke-width="4"/>
<path opacity="0.782609" d="M167.046 766.69C159.086 768.064 152.43 773.512 149.511 781.043L75.5119 971.968C73.0803 978.242 73.5178 985.265 76.7089 991.189L189.552 1200.65C192.454 1206.03 197.385 1210.04 203.251 1211.78L417.542 1275.44C424.85 1277.61 432.76 1276.02 438.659 1271.19L590.392 1146.99C596.292 1142.16 599.415 1134.72 598.731 1127.12L578.677 904.482C578.128 898.387 575.172 892.761 570.464 888.851L387.433 736.846C382.257 732.548 375.458 730.731 368.828 731.875L167.046 766.69Z" stroke="url(#paint53_linear_111_715)" stroke-width="4"/>
<path opacity="0.797101" d="M160.866 765.639C152.911 766.617 146.039 771.666 142.727 778.965L59.0333 963.437C56.2463 969.58 56.2964 976.636 59.1703 982.739L158.686 1194.05C161.313 1199.63 166.071 1203.92 171.89 1205.96L379.625 1278.73C386.789 1281.24 394.729 1280.06 400.846 1275.56L557.579 1160.42C563.697 1155.93 567.203 1148.71 566.95 1141.12L559.614 921.131C559.408 914.968 556.737 909.146 552.199 904.971L380.301 746.828C375.337 742.261 368.618 740.103 361.923 740.926L160.866 765.639Z" stroke="url(#paint54_linear_111_715)" stroke-width="4"/>
<path opacity="0.811594" d="M154.709 765.54C146.779 766.126 139.715 770.767 136.028 777.812L43.1114 955.349C39.9755 961.34 39.6355 968.409 42.1819 974.674L128.492 1187.03C130.832 1192.79 135.401 1197.36 141.16 1199.69L341.978 1281.08C348.981 1283.92 356.931 1283.14 363.246 1278.99L524.453 1173.09C530.768 1168.94 534.643 1161.95 534.819 1154.4L539.863 937.773C540.008 931.56 537.633 925.554 533.278 921.12L372.65 757.581C367.911 752.756 361.289 750.261 354.545 750.76L154.709 765.54Z" stroke="url(#paint55_linear_111_715)" stroke-width="4"/>
<path opacity="0.826087" d="M148.517 766.379C140.633 766.58 133.402 770.806 129.357 777.577L27.714 947.727C24.2369 953.548 23.5052 960.606 25.7144 967.017L98.9884 1179.63C101.029 1185.55 105.397 1190.38 111.082 1193.01L304.656 1282.5C311.482 1285.66 319.419 1285.27 325.912 1281.48L491.063 1184.97C497.556 1181.17 501.784 1174.44 502.385 1166.95L519.432 954.37C519.933 948.127 517.866 941.95 513.708 937.265L364.439 769.067C359.938 763.996 353.43 761.169 346.651 761.341L148.517 766.379Z" stroke="url(#paint56_linear_111_715)" stroke-width="4"/>
<path opacity="0.84058" d="M142.236 768.144C134.417 767.965 127.043 771.771 122.66 778.248L12.8077 940.594C8.99804 946.224 7.87412 953.251 9.73762 959.789L70.1916 1171.87C71.9225 1177.94 76.0735 1183.04 81.6715 1185.96L267.71 1283.02C274.345 1286.48 282.249 1286.5 288.899 1283.07L457.46 1196.06C464.109 1192.63 468.674 1186.18 469.695 1178.76L498.329 970.888C499.191 964.633 497.443 958.299 493.496 953.371L355.629 781.246C351.379 775.94 345 772.786 338.204 772.631L142.236 768.144Z" stroke="url(#paint57_linear_111_715)" stroke-width="4"/>
<path opacity="0.855072" d="M135.809 770.814C128.075 770.263 120.585 773.646 115.884 779.812L-1.6417 933.969C-5.77391 939.39 -7.28936 946.363 -5.77932 953.01L42.1162 1163.82C43.5267 1170.02 47.4474 1175.37 52.9449 1178.58L231.19 1282.68C237.62 1286.44 245.469 1286.85 252.255 1283.79L423.691 1206.37C430.477 1203.31 435.36 1197.15 436.794 1189.84L476.566 987.29C477.793 981.043 476.375 974.567 472.651 969.404L346.186 794.077C342.198 788.549 335.965 785.075 329.167 784.59L135.809 770.814Z" stroke="url(#paint58_linear_111_715)" stroke-width="4"/>
<path opacity="0.869565" d="M129.186 774.37C121.556 773.455 113.973 776.412 108.976 782.25L-15.669 927.87C-20.1127 933.061 -22.0178 939.96 -20.868 946.696L14.7737 1155.5C15.854 1161.83 19.5306 1167.42 24.9145 1170.91L195.143 1281.52C201.354 1285.55 209.129 1286.35 216.03 1283.66L389.806 1215.9C396.707 1213.21 401.89 1207.36 403.73 1200.19L454.156 1003.54C455.751 997.324 454.673 990.721 451.184 985.332L336.075 807.516C332.362 801.78 326.29 797.991 319.505 797.178L129.186 774.37Z" stroke="url(#paint59_linear_111_715)" stroke-width="4"/>
<path opacity="0.884058" d="M122.315 778.786C114.806 777.518 107.157 780.048 101.886 785.543L-29.3097 922.311C-34.0528 927.255 -36.3444 934.057 -35.5606 940.864L-11.8269 1146.96C-11.086 1153.4 -7.66686 1159.22 -2.40952 1163L159.615 1279.56C165.595 1283.87 173.274 1285.04 180.269 1282.73L355.853 1224.66C362.847 1222.34 368.31 1216.82 370.546 1209.8L431.113 1019.61C433.078 1013.44 432.35 1006.73 429.109 1001.12L325.268 821.518C321.839 815.586 315.943 811.492 309.187 810.351L122.315 778.786Z" stroke="url(#paint60_linear_111_715)" stroke-width="4"/>
<path opacity="0.898551" d="M115.147 784.036C107.778 782.424 100.087 784.529 94.5651 789.667L-42.5995 917.305C-47.6288 921.985 -50.3028 928.668 -49.8898 935.526L-37.6789 1138.26C-37.286 1144.78 -34.1375 1150.83 -29.0196 1154.89L124.646 1276.86C130.384 1281.42 137.949 1282.97 145.015 1281.03L321.878 1232.64C328.944 1230.71 334.667 1225.52 337.287 1218.68L407.452 1035.47C409.789 1029.37 409.421 1022.56 406.438 1016.75L313.737 836.036C310.601 829.923 304.897 825.532 298.186 824.064L115.147 784.036Z" stroke="url(#paint61_linear_111_715)" stroke-width="4"/>
<path opacity="0.913043" d="M107.636 790.089C100.423 788.146 92.7159 789.827 86.9669 794.597L-55.5747 912.863C-60.8759 917.262 -63.9266 923.804 -63.8881 930.692L-62.7782 1129.42C-62.7413 1136.02 -59.8763 1142.28 -54.9105 1146.62L90.2764 1273.45C95.7617 1278.25 103.193 1280.16 110.309 1278.6L287.926 1239.87C295.043 1238.32 301.003 1233.49 303.996 1226.85L383.193 1051.08C385.902 1045.07 385.9 1038.18 383.189 1032.17L301.457 851.021C298.625 844.743 293.127 840.064 286.476 838.272L107.636 790.089Z" stroke="url(#paint62_linear_111_715)" stroke-width="4"/>
<path opacity="0.927536" d="M99.7387 796.914C92.6975 794.651 84.9979 795.912 79.0466 800.303L-68.2714 908.993C-73.8291 913.094 -77.2499 919.475 -77.5887 926.373L-87.1232 1120.51C-87.4497 1127.15 -84.8805 1133.62 -80.0793 1138.23L56.5421 1269.39C61.7648 1274.4 69.0435 1276.66 76.1882 1275.49L254.044 1246.36C261.188 1245.19 267.365 1240.72 270.715 1234.31L358.355 1066.41C361.435 1060.51 361.808 1053.57 359.378 1047.37L288.409 866.426C285.887 859.996 280.609 855.04 274.034 852.927L99.7387 796.914Z" stroke="url(#paint63_linear_111_715)" stroke-width="4"/>
<path opacity="0.942029" d="M91.412 804.475C84.5579 801.906 76.8901 802.752 70.7618 806.755L-80.7258 905.702C-86.5237 909.489 -90.3066 915.687 -91.0243 922.575L-110.715 1111.55C-111.411 1118.23 -109.15 1124.88 -104.526 1129.76L23.4763 1264.7C28.4277 1269.92 35.5366 1272.53 42.688 1271.74L220.272 1252.12C227.423 1251.33 233.793 1247.24 237.486 1241.07L332.958 1081.45C336.407 1075.68 337.162 1068.69 335.024 1062.32L274.572 882.2C272.369 875.635 267.325 870.412 260.84 867.981L91.412 804.475Z" stroke="url(#paint64_linear_111_715)" stroke-width="4"/>
<path opacity="0.956522" d="M82.6172 812.735C75.9643 809.874 68.3521 810.313 62.0724 813.921L-92.974 902.993C-98.9948 906.452 -103.131 912.446 -104.228 919.302L-133.557 1102.59C-134.629 1109.29 -132.688 1116.12 -128.252 1121.26L-8.8912 1259.45C-4.2187 1264.86 2.70345 1267.79 9.8399 1267.38L186.653 1257.18C193.789 1256.77 200.329 1253.06 204.348 1247.15L307.024 1096.15C310.839 1090.53 311.982 1083.52 310.147 1076.99L259.933 898.292C258.055 891.608 253.257 886.129 246.879 883.386L82.6172 812.735Z" stroke="url(#paint65_linear_111_715)" stroke-width="4"/>
<path opacity="0.971014" d="M73.3179 821.656C66.8794 818.517 59.3459 818.556 52.9409 821.763L-105.052 900.868C-111.278 903.985 -115.756 909.754 -117.232 916.558L-155.655 1093.68C-157.108 1100.38 -155.498 1107.38 -151.263 1112.76L-40.5336 1253.69C-36.1468 1259.27 -29.4273 1262.52 -22.3272 1262.48L153.226 1261.56C160.326 1261.52 167.011 1258.2 171.339 1252.57L280.577 1110.49C284.755 1105.06 286.291 1098.04 284.768 1091.36L244.48 914.652C242.933 907.864 238.394 902.142 232.136 899.091L73.3179 821.656Z" stroke="url(#paint66_linear_111_715)" stroke-width="4"/>
<path opacity="0.985507" d="M63.4806 831.196C57.2689 827.794 49.8364 827.444 43.3324 830.247L-116.995 899.326C-123.406 902.088 -128.216 907.613 -130.069 914.343L-177.017 1084.86C-178.855 1091.53 -177.587 1098.68 -173.564 1104.32L-71.427 1247.46C-67.3317 1253.2 -60.8302 1256.74 -53.7873 1257.08L120.03 1265.27C127.073 1265.6 133.879 1262.68 138.496 1257.35L253.642 1124.45C258.177 1119.22 260.112 1112.22 258.909 1105.4L228.205 931.227C226.993 924.352 222.724 918.4 216.601 915.047L63.4806 831.196Z" stroke="url(#paint67_linear_111_715)" stroke-width="4"/>
<path d="M53.0743 841.313C47.1007 837.665 39.7909 836.936 33.2143 839.331L-128.838 898.366C-135.415 900.761 -140.543 906.022 -142.77 912.657L-197.654 1076.16C-199.881 1082.8 -198.965 1090.09 -195.166 1095.97L-101.552 1240.82C-97.7528 1246.7 -91.4834 1250.53 -84.5185 1251.22L87.0999 1268.35C94.0647 1269.04 100.967 1266.53 105.853 1261.51L226.243 1138.01C231.129 1133 233.467 1126.04 232.595 1119.09L211.101 947.966C210.228 941.021 206.241 934.852 200.267 931.204L53.0743 841.313Z" stroke="url(#paint68_linear_111_715)" stroke-width="4"/>
<defs>
<linearGradient id="paint0_linear_111_715" x1="1660.7" y1="1332.35" x2="1291.57" y2="216.327" gradientUnits="userSpaceOnUse">
<stop stop-color="#FFC336"/>
<stop offset="1" stop-color="#36D4B7"/>
</linearGradient>
<linearGradient id="paint1_linear_111_715" x1="1609.5" y1="1339.99" x2="1302.02" y2="216.181" gradientUnits="userSpaceOnUse">
<stop stop-color="#FFC336"/>
<stop offset="1" stop-color="#36D4B7"/>
</linearGradient>
<linearGradient id="paint2_linear_111_715" x1="1558.39" y1="1346" x2="1312.36" y2="217.779" gradientUnits="userSpaceOnUse">
<stop stop-color="#FFC336"/>
<stop offset="1" stop-color="#36D4B7"/>
</linearGradient>
<linearGradient id="paint3_linear_111_715" x1="1507.47" y1="1350.41" x2="1322.5" y2="221.099" gradientUnits="userSpaceOnUse">
<stop stop-color="#FFC336"/>
<stop offset="1" stop-color="#36D4B7"/>
</linearGradient>
<linearGradient id="paint4_linear_111_715" x1="1456.83" y1="1353.25" x2="1332.35" y2="226.113" gradientUnits="userSpaceOnUse">
<stop stop-color="#FFC336"/>
<stop offset="1" stop-color="#36D4B7"/>
</linearGradient>
<linearGradient id="paint5_linear_111_715" x1="1406.54" y1="1354.54" x2="1341.82" y2="232.79" gradientUnits="userSpaceOnUse">
<stop stop-color="#FFC336"/>
<stop offset="1" stop-color="#36D4B7"/>
</linearGradient>
<linearGradient id="paint6_linear_111_715" x1="1356.68" y1="1354.31" x2="1350.82" y2="241.092" gradientUnits="userSpaceOnUse">
<stop stop-color="#FFC336"/>
<stop offset="1" stop-color="#36D4B7"/>
</linearGradient>
<linearGradient id="paint7_linear_111_715" x1="1307.34" y1="1352.62" x2="1359.26" y2="250.978" gradientUnits="userSpaceOnUse">
<stop stop-color="#FFC336"/>
<stop offset="1" stop-color="#36D4B7"/>
</linearGradient>
<linearGradient id="paint8_linear_111_715" x1="1258.6" y1="1349.49" x2="1367.07" y2="262.401" gradientUnits="userSpaceOnUse">
<stop stop-color="#FFC336"/>
<stop offset="1" stop-color="#36D4B7"/>
</linearGradient>
<linearGradient id="paint9_linear_111_715" x1="1210.51" y1="1344.98" x2="1374.16" y2="275.312" gradientUnits="userSpaceOnUse">
<stop stop-color="#FFC336"/>
<stop offset="1" stop-color="#36D4B7"/>
</linearGradient>
<linearGradient id="paint10_linear_111_715" x1="1163.16" y1="1339.13" x2="1380.46" y2="289.658" gradientUnits="userSpaceOnUse">
<stop stop-color="#FFC336"/>
<stop offset="1" stop-color="#36D4B7"/>
</linearGradient>
<linearGradient id="paint11_linear_111_715" x1="1116.61" y1="1332.01" x2="1385.91" y2="305.379" gradientUnits="userSpaceOnUse">
<stop stop-color="#FFC336"/>
<stop offset="1" stop-color="#36D4B7"/>
</linearGradient>
<linearGradient id="paint12_linear_111_715" x1="1070.93" y1="1323.66" x2="1390.43" y2="322.415" gradientUnits="userSpaceOnUse">
<stop stop-color="#FFC336"/>
<stop offset="1" stop-color="#36D4B7"/>
</linearGradient>
<linearGradient id="paint13_linear_111_715" x1="1026.16" y1="1314.15" x2="1393.96" y2="340.703" gradientUnits="userSpaceOnUse">
<stop stop-color="#FFC336"/>
<stop offset="1" stop-color="#36D4B7"/>
</linearGradient>
<linearGradient id="paint14_linear_111_715" x1="982.367" y1="1303.54" x2="1396.44" y2="360.173" gradientUnits="userSpaceOnUse">
<stop stop-color="#FFC336"/>
<stop offset="1" stop-color="#36D4B7"/>
</linearGradient>
<linearGradient id="paint15_linear_111_715" x1="939.601" y1="1291.89" x2="1397.81" y2="380.757" gradientUnits="userSpaceOnUse">
<stop stop-color="#FFC336"/>
<stop offset="1" stop-color="#36D4B7"/>
</linearGradient>
<linearGradient id="paint16_linear_111_715" x1="897.909" y1="1279.27" x2="1398.04" y2="402.383" gradientUnits="userSpaceOnUse">
<stop stop-color="#FFC336"/>
<stop offset="1" stop-color="#36D4B7"/>
</linearGradient>
<linearGradient id="paint17_linear_111_715" x1="857.331" y1="1265.76" x2="1397.06" y2="424.974" gradientUnits="userSpaceOnUse">
<stop stop-color="#FFC336"/>
<stop offset="1" stop-color="#36D4B7"/>
</linearGradient>
<linearGradient id="paint18_linear_111_715" x1="817.907" y1="1251.41" x2="1394.85" y2="448.456" gradientUnits="userSpaceOnUse">
<stop stop-color="#FFC336"/>
<stop offset="1" stop-color="#36D4B7"/>
</linearGradient>
<linearGradient id="paint19_linear_111_715" x1="779.67" y1="1236.31" x2="1391.36" y2="472.749" gradientUnits="userSpaceOnUse">
<stop stop-color="#FFC336"/>
<stop offset="1" stop-color="#36D4B7"/>
</linearGradient>
<linearGradient id="paint20_linear_111_715" x1="742.649" y1="1220.53" x2="1386.56" y2="497.775" gradientUnits="userSpaceOnUse">
<stop stop-color="#FFC336"/>
<stop offset="1" stop-color="#36D4B7"/>
</linearGradient>
<linearGradient id="paint21_linear_111_715" x1="706.87" y1="1204.15" x2="1380.43" y2="523.453" gradientUnits="userSpaceOnUse">
<stop stop-color="#FFC336"/>
<stop offset="1" stop-color="#36D4B7"/>
</linearGradient>
<linearGradient id="paint22_linear_111_715" x1="672.352" y1="1187.23" x2="1372.94" y2="549.702" gradientUnits="userSpaceOnUse">
<stop stop-color="#FFC336"/>
<stop offset="1" stop-color="#36D4B7"/>
</linearGradient>
<linearGradient id="paint23_linear_111_715" x1="639.112" y1="1169.86" x2="1364.07" y2="576.44" gradientUnits="userSpaceOnUse">
<stop stop-color="#FFC336"/>
<stop offset="1" stop-color="#36D4B7"/>
</linearGradient>
<linearGradient id="paint24_linear_111_715" x1="607.161" y1="1152.1" x2="1353.83" y2="603.585" gradientUnits="userSpaceOnUse">
<stop stop-color="#FFC336"/>
<stop offset="1" stop-color="#36D4B7"/>
</linearGradient>
<linearGradient id="paint25_linear_111_715" x1="576.507" y1="1134.05" x2="1342.18" y2="631.056" gradientUnits="userSpaceOnUse">
<stop stop-color="#FFC336"/>
<stop offset="1" stop-color="#36D4B7"/>
</linearGradient>
<linearGradient id="paint26_linear_111_715" x1="547.151" y1="1115.77" x2="1329.15" y2="658.771" gradientUnits="userSpaceOnUse">
<stop stop-color="#FFC336"/>
<stop offset="1" stop-color="#36D4B7"/>
</linearGradient>
<linearGradient id="paint27_linear_111_715" x1="519.092" y1="1097.33" x2="1314.71" y2="686.649" gradientUnits="userSpaceOnUse">
<stop stop-color="#FFC336"/>
<stop offset="1" stop-color="#36D4B7"/>
</linearGradient>
<linearGradient id="paint28_linear_111_715" x1="492.324" y1="1078.82" x2="1298.89" y2="714.61" gradientUnits="userSpaceOnUse">
<stop stop-color="#FFC336"/>
<stop offset="1" stop-color="#36D4B7"/>
</linearGradient>
<linearGradient id="paint29_linear_111_715" x1="466.837" y1="1060.31" x2="1281.7" y2="742.576" gradientUnits="userSpaceOnUse">
<stop stop-color="#FFC336"/>
<stop offset="1" stop-color="#36D4B7"/>
</linearGradient>
<linearGradient id="paint30_linear_111_715" x1="442.616" y1="1041.86" x2="1263.14" y2="770.469" gradientUnits="userSpaceOnUse">
<stop stop-color="#FFC336"/>
<stop offset="1" stop-color="#36D4B7"/>
</linearGradient>
<linearGradient id="paint31_linear_111_715" x1="419.644" y1="1023.55" x2="1243.24" y2="798.213" gradientUnits="userSpaceOnUse">
<stop stop-color="#FFC336"/>
<stop offset="1" stop-color="#36D4B7"/>
</linearGradient>
<linearGradient id="paint32_linear_111_715" x1="397.898" y1="1005.45" x2="1222.02" y2="825.734" gradientUnits="userSpaceOnUse">
<stop stop-color="#FFC336"/>
<stop offset="1" stop-color="#36D4B7"/>
</linearGradient>
<linearGradient id="paint33_linear_111_715" x1="377.351" y1="987.623" x2="1199.51" y2="852.961" gradientUnits="userSpaceOnUse">
<stop stop-color="#FFC336"/>
<stop offset="1" stop-color="#36D4B7"/>
</linearGradient>
<linearGradient id="paint34_linear_111_715" x1="357.976" y1="970.133" x2="1175.74" y2="879.824" gradientUnits="userSpaceOnUse">
<stop stop-color="#FFC336"/>
<stop offset="1" stop-color="#36D4B7"/>
</linearGradient>
<linearGradient id="paint35_linear_111_715" x1="339.738" y1="953.045" x2="1150.75" y2="906.255" gradientUnits="userSpaceOnUse">
<stop stop-color="#FFC336"/>
<stop offset="1" stop-color="#36D4B7"/>
</linearGradient>
<linearGradient id="paint36_linear_111_715" x1="322.601" y1="936.418" x2="1124.58" y2="932.192" gradientUnits="userSpaceOnUse">
<stop stop-color="#FFC336"/>
<stop offset="1" stop-color="#36D4B7"/>
</linearGradient>
<linearGradient id="paint37_linear_111_715" x1="306.527" y1="920.308" x2="1097.26" y2="957.572" gradientUnits="userSpaceOnUse">
<stop stop-color="#FFC336"/>
<stop offset="1" stop-color="#36D4B7"/>
</linearGradient>
<linearGradient id="paint38_linear_111_715" x1="291.472" y1="904.771" x2="1068.85" y2="982.337" gradientUnits="userSpaceOnUse">
<stop stop-color="#FFC336"/>
<stop offset="1" stop-color="#36D4B7"/>
</linearGradient>
<linearGradient id="paint39_linear_111_715" x1="277.393" y1="889.856" x2="1039.39" y2="1006.43" gradientUnits="userSpaceOnUse">
<stop stop-color="#FFC336"/>
<stop offset="1" stop-color="#36D4B7"/>
</linearGradient>
<linearGradient id="paint40_linear_111_715" x1="264.241" y1="875.613" x2="1008.93" y2="1029.81" gradientUnits="userSpaceOnUse">
<stop stop-color="#FFC336"/>
<stop offset="1" stop-color="#36D4B7"/>
</linearGradient>
<linearGradient id="paint41_linear_111_715" x1="251.966" y1="862.086" x2="977.532" y2="1052.41" gradientUnits="userSpaceOnUse">
<stop stop-color="#FFC336"/>
<stop offset="1" stop-color="#36D4B7"/>
</linearGradient>
<linearGradient id="paint42_linear_111_715" x1="240.517" y1="849.317" x2="945.244" y2="1074.2" gradientUnits="userSpaceOnUse">
<stop stop-color="#FFC336"/>
<stop offset="1" stop-color="#36D4B7"/>
</linearGradient>
<linearGradient id="paint43_linear_111_715" x1="229.84" y1="837.343" x2="912.126" y2="1095.13" gradientUnits="userSpaceOnUse">
<stop stop-color="#FFC336"/>
<stop offset="1" stop-color="#36D4B7"/>
</linearGradient>
<linearGradient id="paint44_linear_111_715" x1="219.879" y1="826.2" x2="878.238" y2="1115.17" gradientUnits="userSpaceOnUse">
<stop stop-color="#FFC336"/>
<stop offset="1" stop-color="#36D4B7"/>
</linearGradient>
<linearGradient id="paint45_linear_111_715" x1="210.577" y1="815.917" x2="843.642" y2="1134.29" gradientUnits="userSpaceOnUse">
<stop stop-color="#FFC336"/>
<stop offset="1" stop-color="#36D4B7"/>
</linearGradient>
<linearGradient id="paint46_linear_111_715" x1="201.876" y1="806.523" x2="808.399" y2="1152.45" gradientUnits="userSpaceOnUse">
<stop stop-color="#FFC336"/>
<stop offset="1" stop-color="#36D4B7"/>
</linearGradient>
<linearGradient id="paint47_linear_111_715" x1="193.718" y1="798.04" x2="772.574" y2="1169.63" gradientUnits="userSpaceOnUse">
<stop stop-color="#FFC336"/>
<stop offset="1" stop-color="#36D4B7"/>
</linearGradient>
<linearGradient id="paint48_linear_111_715" x1="186.041" y1="790.488" x2="736.231" y2="1185.81" gradientUnits="userSpaceOnUse">
<stop stop-color="#FFC336"/>
<stop offset="1" stop-color="#36D4B7"/>
</linearGradient>
<linearGradient id="paint49_linear_111_715" x1="178.785" y1="783.883" x2="699.434" y2="1200.97" gradientUnits="userSpaceOnUse">
<stop stop-color="#FFC336"/>
<stop offset="1" stop-color="#36D4B7"/>
</linearGradient>
<linearGradient id="paint50_linear_111_715" x1="171.891" y1="778.238" x2="662.25" y2="1215.1" gradientUnits="userSpaceOnUse">
<stop stop-color="#FFC336"/>
<stop offset="1" stop-color="#36D4B7"/>
</linearGradient>
<linearGradient id="paint51_linear_111_715" x1="165.295" y1="773.561" x2="624.745" y2="1228.19" gradientUnits="userSpaceOnUse">
<stop stop-color="#FFC336"/>
<stop offset="1" stop-color="#36D4B7"/>
</linearGradient>
<linearGradient id="paint52_linear_111_715" x1="158.939" y1="769.857" x2="586.982" y2="1240.24" gradientUnits="userSpaceOnUse">
<stop stop-color="#FFC336"/>
<stop offset="1" stop-color="#36D4B7"/>
</linearGradient>
<linearGradient id="paint53_linear_111_715" x1="152.761" y1="767.126" x2="549.028" y2="1251.24" gradientUnits="userSpaceOnUse">
<stop stop-color="#FFC336"/>
<stop offset="1" stop-color="#36D4B7"/>
</linearGradient>
<linearGradient id="paint54_linear_111_715" x1="146.701" y1="765.365" x2="510.946" y2="1261.19" gradientUnits="userSpaceOnUse">
<stop stop-color="#FFC336"/>
<stop offset="1" stop-color="#36D4B7"/>
</linearGradient>
<linearGradient id="paint55_linear_111_715" x1="140.701" y1="764.57" x2="472.801" y2="1270.11" gradientUnits="userSpaceOnUse">
<stop stop-color="#FFC336"/>
<stop offset="1" stop-color="#36D4B7"/>
</linearGradient>
<linearGradient id="paint56_linear_111_715" x1="134.701" y1="764.73" x2="434.654" y2="1278" gradientUnits="userSpaceOnUse">
<stop stop-color="#FFC336"/>
<stop offset="1" stop-color="#36D4B7"/>
</linearGradient>
<linearGradient id="paint57_linear_111_715" x1="128.647" y1="765.832" x2="396.567" y2="1284.88" gradientUnits="userSpaceOnUse">
<stop stop-color="#FFC336"/>
<stop offset="1" stop-color="#36D4B7"/>
</linearGradient>
<linearGradient id="paint58_linear_111_715" x1="122.481" y1="767.859" x2="358.6" y2="1290.76" gradientUnits="userSpaceOnUse">
<stop stop-color="#FFC336"/>
<stop offset="1" stop-color="#36D4B7"/>
</linearGradient>
<linearGradient id="paint59_linear_111_715" x1="116.15" y1="770.793" x2="320.81" y2="1295.67" gradientUnits="userSpaceOnUse">
<stop stop-color="#FFC336"/>
<stop offset="1" stop-color="#36D4B7"/>
</linearGradient>
<linearGradient id="paint60_linear_111_715" x1="109.602" y1="774.61" x2="283.253" y2="1299.62" gradientUnits="userSpaceOnUse">
<stop stop-color="#FFC336"/>
<stop offset="1" stop-color="#36D4B7"/>
</linearGradient>
<linearGradient id="paint61_linear_111_715" x1="102.786" y1="779.285" x2="245.984" y2="1302.66" gradientUnits="userSpaceOnUse">
<stop stop-color="#FFC336"/>
<stop offset="1" stop-color="#36D4B7"/>
</linearGradient>
<linearGradient id="paint62_linear_111_715" x1="95.6545" y1="784.79" x2="209.055" y2="1304.81" gradientUnits="userSpaceOnUse">
<stop stop-color="#FFC336"/>
<stop offset="1" stop-color="#36D4B7"/>
</linearGradient>
<linearGradient id="paint63_linear_111_715" x1="88.1616" y1="791.092" x2="172.514" y2="1306.09" gradientUnits="userSpaceOnUse">
<stop stop-color="#FFC336"/>
<stop offset="1" stop-color="#36D4B7"/>
</linearGradient>
<linearGradient id="paint64_linear_111_715" x1="80.2636" y1="798.16" x2="136.408" y2="1306.56" gradientUnits="userSpaceOnUse">
<stop stop-color="#FFC336"/>
<stop offset="1" stop-color="#36D4B7"/>
</linearGradient>
<linearGradient id="paint65_linear_111_715" x1="71.9195" y1="805.957" x2="100.782" y2="1306.24" gradientUnits="userSpaceOnUse">
<stop stop-color="#FFC336"/>
<stop offset="1" stop-color="#36D4B7"/>
</linearGradient>
<linearGradient id="paint66_linear_111_715" x1="63.0911" y1="814.445" x2="65.677" y2="1305.18" gradientUnits="userSpaceOnUse">
<stop stop-color="#FFC336"/>
<stop offset="1" stop-color="#36D4B7"/>
</linearGradient>
<linearGradient id="paint67_linear_111_715" x1="53.7429" y1="823.583" x2="31.1307" y2="1303.41" gradientUnits="userSpaceOnUse">
<stop stop-color="#FFC336"/>
<stop offset="1" stop-color="#36D4B7"/>
</linearGradient>
<linearGradient id="paint68_linear_111_715" x1="43.8418" y1="833.331" x2="-2.8216" y2="1301" gradientUnits="userSpaceOnUse">
<stop stop-color="#FFC336"/>
<stop offset="1" stop-color="#36D4B7"/>
</linearGradient>
</defs>
</svg>
