<svg width="48" height="48" viewBox="0 0 48 48" fill="none" xmlns="http://www.w3.org/2000/svg">
<g id="SOCIAL LOGO" clip-path="url(#clip0_11_103)">
<path id="Vector" fill-rule="evenodd" clip-rule="evenodd" d="M24.0199 0C10.7375 0 0 11 0 24.6085C0 35.4865 6.87988 44.6945 16.4241 47.9535C17.6174 48.1985 18.0545 47.424 18.0545 46.7725C18.0545 46.202 18.0151 44.2465 18.0151 42.209C11.3334 43.676 9.94198 39.2755 9.94198 39.2755C8.86818 36.4235 7.27715 35.6905 7.27715 35.6905C5.09022 34.183 7.43645 34.183 7.43645 34.183C9.86233 34.346 11.1353 36.709 11.1353 36.709C13.2824 40.457 16.7422 39.398 18.1341 38.746C18.3328 37.157 18.9695 36.057 19.6455 35.446C14.3163 34.8755 8.70937 32.757 8.70937 23.3045C8.70937 20.6155 9.66321 18.4155 11.1746 16.7045C10.9361 16.0935 10.1008 13.567 11.4135 10.1855C11.4135 10.1855 13.4417 9.5335 18.0146 12.7115C19.9725 12.1728 21.9916 11.8988 24.0199 11.8965C26.048 11.8965 28.1154 12.182 30.0246 12.7115C34.5981 9.5335 36.6262 10.1855 36.6262 10.1855C37.9389 13.567 37.1031 16.0935 36.8646 16.7045C38.4158 18.4155 39.3303 20.6155 39.3303 23.3045C39.3303 32.757 33.7234 34.8345 28.3544 35.446C29.2296 36.22 29.9848 37.6865 29.9848 40.009C29.9848 43.309 29.9454 45.9575 29.9454 46.772C29.9454 47.424 30.383 48.1985 31.5758 47.954C41.12 44.694 47.9999 35.4865 47.9999 24.6085C48.0392 11 37.2624 0 24.0199 0Z" fill="white"/>
</g>
<defs>
<clipPath id="clip0_11_103">
<rect width="48" height="48" fill="white"/>
</clipPath>
</defs>
</svg>
