<svg width="92" height="48" viewBox="0 0 92 48" fill="none" xmlns="http://www.w3.org/2000/svg">
<g id="Clip path group">
<mask id="mask0_233_449" style="mask-type:luminance" maskUnits="userSpaceOnUse" x="0" y="0" width="92" height="48">
<g id="clip0_1999_15614">
<path id="Vector" d="M91.8519 0H0V48H91.8519V0Z" fill="white"/>
</g>
</mask>
<g mask="url(#mask0_233_449)">
<g id="Group">
<path id="Vector_2" d="M80.2291 29.7578C80.2291 31.0655 79.9407 32.1539 79.3738 32.9934C78.8128 33.8349 78.1076 34.467 77.276 34.8739C76.4523 35.2808 75.6306 35.4882 74.8365 35.4882C73.517 35.4882 72.4148 35.0339 71.5654 34.1391C70.72 33.2403 70.2933 32.0136 70.2933 30.4927V16.7465H66.5679V30.7198C66.5679 32.5865 66.878 34.1588 67.4923 35.3954C68.1086 36.6299 68.9718 37.5702 70.0563 38.1885C71.1348 38.7949 72.3832 39.103 73.7659 39.103C75.437 39.103 76.8434 38.706 77.9457 37.9238C78.9412 37.2087 79.7076 36.3415 80.2291 35.344V38.8206H83.9545V16.7465H80.2291V29.7598V29.7578Z" fill="#4DA2FF"/>
<path id="Vector_3" d="M61.0116 24.8966C60.1543 24.2882 59.2417 23.8003 58.2995 23.4467C57.381 23.101 56.5356 22.8245 55.783 22.625L52.8319 21.8309C52.3025 21.6926 51.7138 21.5089 51.0857 21.2857C50.4615 21.0566 49.8551 20.7623 49.2882 20.4146C48.7311 20.063 48.2669 19.6226 47.9074 19.1031C47.5637 18.5836 47.3899 17.9515 47.3899 17.2226C47.3899 16.3476 47.6427 15.5555 48.1425 14.87C48.6541 14.1767 49.379 13.6236 50.2916 13.2266C51.222 12.8256 52.3262 12.6221 53.5726 12.6221C55.2753 12.6221 56.7292 13.0093 57.8966 13.7757C59.0442 14.5283 59.7079 15.6009 59.8699 16.9639L59.8896 17.1377H63.6566L63.6487 16.9342C63.6012 15.4409 63.1311 14.0878 62.2561 12.9145C61.3929 11.7451 60.2077 10.8127 58.7361 10.1431C57.2684 9.46558 55.5677 9.12386 53.6852 9.12386C51.8027 9.12386 50.1079 9.47151 48.5929 10.1569C47.0817 10.8364 45.859 11.8063 44.9583 13.0429C44.0615 14.2755 43.6072 15.7392 43.6072 17.3925C43.6072 19.3895 44.2946 21.0289 45.6477 22.2655C46.981 23.4843 48.8121 24.4344 51.0896 25.0902L54.6472 26.1075C55.6487 26.386 56.5948 26.7159 57.458 27.0872C58.3015 27.4507 58.9909 27.9267 59.5064 28.5055C60.0062 29.0665 60.261 29.8112 60.261 30.7178C60.261 31.7213 59.9627 32.6102 59.3721 33.3608C58.7756 34.1114 57.9519 34.708 56.9267 35.1346C55.8936 35.5554 54.7064 35.7687 53.4027 35.7687C52.2827 35.7687 51.22 35.6008 50.2501 35.2709C49.298 34.9351 48.498 34.4215 47.8758 33.744C47.2674 33.0645 46.9138 32.1914 46.825 31.1484L46.8091 30.9687H42.8032L42.819 31.1801C42.9336 32.7899 43.4353 34.226 44.3104 35.4447C45.1933 36.6635 46.4161 37.6255 47.9469 38.305C49.4798 38.9805 51.3168 39.3242 53.4047 39.3242C55.6447 39.3242 57.5785 38.943 59.1489 38.1904C60.7371 37.4339 61.9617 36.3988 62.7854 35.1129C63.621 33.825 64.0457 32.3652 64.0457 30.7712C64.0457 29.3865 63.7553 28.1993 63.1845 27.2413C62.6175 26.2892 61.8867 25.501 61.0116 24.8946V24.8966Z" fill="#4DA2FF"/>
<path id="Vector_4" d="M91.7376 11.0714C91.7376 10.3959 91.4788 9.81118 90.9712 9.33316C90.4734 8.85711 89.869 8.61612 89.1697 8.61612C88.4704 8.61612 87.8621 8.85711 87.3544 9.33513C86.8546 9.81316 86.6018 10.3978 86.6018 11.0734C86.6018 11.749 86.8546 12.3317 87.3564 12.8117C87.8621 13.2877 88.4724 13.5287 89.1717 13.5287C89.8709 13.5287 90.4181 13.3095 90.9001 12.8788L90.9218 12.8591C90.9396 12.8433 90.9574 12.8275 90.9751 12.8097L91.0463 12.7406C91.5085 12.2744 91.7416 11.7134 91.7416 11.0714H91.7376Z" fill="#4DA2FF"/>
<path id="Vector_5" d="M91.0025 16.7446H87.2771V38.8188H91.0025V16.7446Z" fill="#4DA2FF"/>
<path id="Vector_6" fill-rule="evenodd" clip-rule="evenodd" d="M30.0128 19.9943C31.9684 22.4496 33.1378 25.5548 33.1378 28.9325C33.1378 32.3103 31.9328 35.5103 29.9259 37.9795L29.7521 38.1928L29.7067 37.9222C29.6672 37.693 29.6217 37.46 29.5684 37.2269C28.563 32.8101 25.2879 29.0234 19.8973 25.9558C16.2568 23.8896 14.1728 21.4046 13.6257 18.578C13.2721 16.7508 13.5348 14.9157 14.0425 13.3434C14.5501 11.773 15.3047 10.4555 15.9467 9.66339L18.0444 7.09944C18.4118 6.64907 19.1012 6.64907 19.4686 7.09944L30.0148 19.9943H30.0128ZM33.3294 17.4323L19.2731 0.247086C19.0044 -0.0808157 18.5027 -0.0808157 18.2341 0.247086L4.17975 17.4323L4.13432 17.4896C1.54864 20.6995 0 24.7785 0 29.219C0 39.5597 8.39704 47.9429 18.7536 47.9429C29.1101 47.9429 37.5072 39.5597 37.5072 29.219C37.5072 24.7785 35.9585 20.6995 33.3728 17.4915L33.3274 17.4343L33.3294 17.4323ZM7.5437 19.939L8.8 18.4002L8.83753 18.6846C8.86716 18.9098 8.90469 19.135 8.94815 19.3622C9.76197 23.6308 12.6677 27.1883 17.5249 29.9439C21.7481 32.3479 24.2074 35.1113 24.9146 38.1414C25.2109 39.4056 25.2622 40.6501 25.1338 41.7385L25.1259 41.8056L25.0647 41.8353C23.1585 42.7656 21.0153 43.2891 18.7516 43.2891C10.8089 43.2891 4.36938 36.8614 4.36938 28.9306C4.36938 25.5251 5.55654 22.3982 7.53975 19.935L7.5437 19.939Z" fill="#4DA2FF"/>
</g>
</g>
</g>
</svg>
