<svg width="19" height="24" viewBox="0 0 19 24" fill="none" xmlns="http://www.w3.org/2000/svg">
<g id="Sui_Logo_White 1" clip-path="url(#clip0_73_1979)">
<path id="Vector" fill-rule="evenodd" clip-rule="evenodd" d="M15.0064 10.0085C15.9842 11.2362 16.5689 12.7887 16.5689 14.4776C16.5689 16.1665 15.9664 17.7665 14.963 19.0011L14.876 19.1078L14.8533 18.9724C14.8336 18.8579 14.8109 18.7413 14.7842 18.6248C14.2815 16.4164 12.644 14.5231 9.94864 12.9892C8.1284 11.9562 7.08642 10.7137 6.81284 9.30036C6.63605 8.38678 6.76741 7.46925 7.02123 6.68307C7.27506 5.89789 7.65235 5.23912 7.97333 4.84307L9.02222 3.5611C9.20592 3.33591 9.55062 3.33591 9.73432 3.5611L15.0074 10.0085H15.0064ZM16.6647 8.72752L9.63654 0.134926C9.50222 -0.0290247 9.25136 -0.0290247 9.11704 0.134926L2.08988 8.72752L2.06716 8.75616C0.774321 10.3611 0 12.4006 0 14.6208C0 19.7912 4.19852 23.9828 9.37679 23.9828C14.5551 23.9828 18.7536 19.7912 18.7536 14.6208C18.7536 12.4006 17.9793 10.3611 16.6864 8.75715L16.6637 8.72851L16.6647 8.72752ZM3.77185 9.98084L4.4 9.21147L4.41877 9.35369C4.43358 9.46628 4.45235 9.57888 4.47407 9.69246C4.88099 11.8268 6.33383 13.6055 8.76247 14.9833C10.8741 16.1853 12.1037 17.567 12.4573 19.0821C12.6054 19.7142 12.6311 20.3364 12.5669 20.8806L12.563 20.9142L12.5323 20.929C11.5793 21.3942 10.5077 21.6559 9.3758 21.6559C5.40444 21.6559 2.18469 18.4421 2.18469 14.4766C2.18469 12.7739 2.77827 11.2105 3.76988 9.97887L3.77185 9.98084Z" fill="#111019"/>
</g>
<defs>
<clipPath id="clip0_73_1979">
<rect width="18.7654" height="24" fill="white"/>
</clipPath>
</defs>
</svg>
