<svg width="40" height="40" viewBox="0 0 40 40" fill="none" xmlns="http://www.w3.org/2000/svg">
<path d="M14.743 17.1625C14.743 16.4502 15.3205 15.8727 16.0328 15.8727H26.0931C28.3725 15.8727 30.2204 17.7206 30.2204 20V21.5477L36.5145 21.5477C37.2268 21.5477 37.8043 22.1252 37.8043 22.8375C37.8043 23.5498 37.2268 24.1273 36.5145 24.1273H30.2204V26.1909C30.2204 28.4704 28.3725 30.3182 26.0931 30.3182H17.3226V36.1996H14.743V30.3182H10.8737C10.1614 30.3182 9.5839 29.7408 9.5839 29.0285C9.5839 28.3161 10.1614 27.7387 10.8737 27.7387H26.0931C26.9479 27.7387 27.6408 27.0457 27.6408 26.1909V20C27.6408 19.1452 26.9479 18.4523 26.0931 18.4523H16.0328C15.3205 18.4523 14.743 17.8748 14.743 17.1625Z" fill="url(#paint0_linear_194_128)"/>
<path d="M25.0613 3.80037V9.68176H28.9306C29.6429 9.68176 30.2204 10.2592 30.2204 10.9715C30.2204 11.6839 29.6429 12.2613 28.9306 12.2613H13.7112C12.8564 12.2613 12.1635 12.9543 12.1635 13.8091V16.1298C12.1635 16.1301 12.1635 16.1304 12.1635 16.1307C12.1635 16.131 12.1635 16.1312 12.1635 16.1315L12.1635 20C12.1635 20.8548 12.8564 21.5477 13.7112 21.5477L23.7715 21.5477C24.4838 21.5477 25.0613 22.1252 25.0613 22.8375C25.0613 23.5498 24.4838 24.1273 23.7715 24.1273H13.7112C11.4318 24.1273 9.5839 22.2794 9.5839 20V17.4204H3.28978C2.57745 17.4204 2 16.843 2 16.1307C2 15.4183 2.57745 14.8409 3.28978 14.8409L9.5839 14.8409V13.8091C9.5839 11.5296 11.4318 9.68176 13.7112 9.68176H22.4817V3.80037H25.0613Z" fill="url(#paint1_linear_194_128)"/>
<path d="M21.9632 0.551434L24.2864 1.89048C24.7658 2.16681 25.0613 2.67807 25.0613 3.23143V5.33874L20.6588 2.80128C20.1804 2.52556 19.5914 2.52557 19.113 2.80128L5.35441 10.7313C4.87499 11.0076 4.57956 11.5189 4.57956 12.0723V17.4204H3.54774C2.69294 17.4204 2 16.7275 2 15.8727V12.0667C2 10.5911 2.78781 9.2277 4.06628 8.49083L17.8411 0.551434C19.1168 -0.183811 20.6875 -0.183811 21.9632 0.551434Z" fill="url(#paint2_linear_194_128)"/>
<path d="M3.28978 20C2.57745 20 2 20.5774 2 21.2898V27.9333C2 29.4089 2.78781 30.7723 4.06628 31.5092L10.3539 35.1332C11.1585 35.5969 12.1635 35.0162 12.1635 34.0876C12.1635 33.5342 11.868 33.0229 11.3886 32.7466L5.35441 29.2687C4.87499 28.9924 4.57956 28.4811 4.57956 27.9277V21.2898C4.57956 20.5774 4.0021 20 3.28978 20Z" fill="url(#paint3_linear_194_128)"/>
<path d="M14.743 36.7686C14.743 37.3219 15.0384 37.8332 15.5179 38.1095L17.8411 39.4486C19.1168 40.1838 20.6875 40.1838 21.9632 39.4486L35.738 31.5092C37.0165 30.7723 37.8043 29.4089 37.8043 27.9333V23.0955C37.8043 22.2407 37.1113 21.5477 36.2565 21.5477H35.1922V27.9277C35.1922 28.4811 34.8968 28.9924 34.4174 29.2687L20.6588 37.1987C20.1804 37.4744 19.5914 37.4744 19.113 37.1987L14.743 34.68L14.743 36.7686Z" fill="url(#paint4_linear_194_128)"/>
<path d="M37.8043 12.0667V17.6621C37.8043 18.3834 37.2195 18.9682 36.4982 18.9682C35.7769 18.9682 35.1922 18.3834 35.1922 17.6621V12.0723C35.1922 11.5189 34.8968 11.0076 34.4174 10.7313L28.2918 7.20072C27.889 6.96857 27.6408 6.53904 27.6408 6.07415C27.6408 5.07359 28.7236 4.44793 29.5905 4.94757L35.738 8.49082C37.0165 9.2277 37.8043 10.5911 37.8043 12.0667Z" fill="url(#paint5_linear_194_128)"/>
<defs>
<linearGradient id="paint0_linear_194_128" x1="19.9021" y1="0" x2="19.9021" y2="40" gradientUnits="userSpaceOnUse">
<stop stop-color="#36D4B7"/>
<stop offset="1" stop-color="#FFC336"/>
</linearGradient>
<linearGradient id="paint1_linear_194_128" x1="19.9021" y1="0" x2="19.9021" y2="40" gradientUnits="userSpaceOnUse">
<stop stop-color="#36D4B7"/>
<stop offset="1" stop-color="#FFC336"/>
</linearGradient>
<linearGradient id="paint2_linear_194_128" x1="19.9021" y1="0" x2="19.9021" y2="40" gradientUnits="userSpaceOnUse">
<stop stop-color="#36D4B7"/>
<stop offset="1" stop-color="#FFC336"/>
</linearGradient>
<linearGradient id="paint3_linear_194_128" x1="19.9021" y1="0" x2="19.9021" y2="40" gradientUnits="userSpaceOnUse">
<stop stop-color="#36D4B7"/>
<stop offset="1" stop-color="#FFC336"/>
</linearGradient>
<linearGradient id="paint4_linear_194_128" x1="19.9021" y1="0" x2="19.9021" y2="40" gradientUnits="userSpaceOnUse">
<stop stop-color="#36D4B7"/>
<stop offset="1" stop-color="#FFC336"/>
</linearGradient>
<linearGradient id="paint5_linear_194_128" x1="19.9021" y1="0" x2="19.9021" y2="40" gradientUnits="userSpaceOnUse">
<stop stop-color="#36D4B7"/>
<stop offset="1" stop-color="#FFC336"/>
</linearGradient>
</defs>
</svg>
